<mxfile host="Electron" modified="2024-09-30T20:52:00.278Z" agent="Mozilla/5.0 (Windows NT 10.0; Win64; x64) AppleWebKit/537.36 (KHTML, like Gecko) draw.io/22.1.2 Chrome/114.0.5735.289 Electron/25.9.4 Safari/537.36" etag="WInmfDY-DaXPDiKALLvb" version="22.1.2" type="device" pages="4">
  <diagram name="Updated G2 Front Panel V1" id="MgbidGBqcdKT8t0jtWqK">
    <mxGraphModel dx="2044" dy="1166" grid="1" gridSize="1.1810999999999998" guides="1" tooltips="1" connect="1" arrows="1" fold="1" page="1" pageScale="1" pageWidth="800" pageHeight="400" math="0" shadow="0">
      <root>
        <mxCell id="k5Z7qsVXE2uSTsqXlhwG-0" />
        <mxCell id="k5Z7qsVXE2uSTsqXlhwG-1" parent="k5Z7qsVXE2uSTsqXlhwG-0" />
        <mxCell id="k5Z7qsVXE2uSTsqXlhwG-2" value="" style="group;fontSize=8;fillColor=default;" parent="k5Z7qsVXE2uSTsqXlhwG-1" vertex="1" connectable="0">
          <mxGeometry width="660" height="290" as="geometry" />
        </mxCell>
        <mxCell id="k5Z7qsVXE2uSTsqXlhwG-3" value="" style="rounded=1;whiteSpace=wrap;html=1;arcSize=6;fillColor=none;fontSize=11;" parent="k5Z7qsVXE2uSTsqXlhwG-2" vertex="1">
          <mxGeometry width="660" height="290" as="geometry" />
        </mxCell>
        <mxCell id="k5Z7qsVXE2uSTsqXlhwG-4" value="" style="rounded=0;whiteSpace=wrap;html=1;fontSize=11;" parent="k5Z7qsVXE2uSTsqXlhwG-2" vertex="1">
          <mxGeometry x="138.38709677419354" y="34.8" width="330" height="208.79999999999998" as="geometry" />
        </mxCell>
        <mxCell id="k5Z7qsVXE2uSTsqXlhwG-5" value="" style="ellipse;whiteSpace=wrap;html=1;aspect=fixed;fontSize=11;" parent="k5Z7qsVXE2uSTsqXlhwG-2" vertex="1">
          <mxGeometry x="521.6129032258065" y="174" width="85.16129032258064" height="85.16129032258064" as="geometry" />
        </mxCell>
        <mxCell id="k5Z7qsVXE2uSTsqXlhwG-6" value="" style="group;fontSize=11;" parent="k5Z7qsVXE2uSTsqXlhwG-2" vertex="1" connectable="0">
          <mxGeometry x="17.032258064516128" y="141.51999999999998" width="31.93548387096774" height="34.8" as="geometry" />
        </mxCell>
        <mxCell id="k5Z7qsVXE2uSTsqXlhwG-7" value="" style="ellipse;whiteSpace=wrap;html=1;aspect=fixed;fontSize=11;" parent="k5Z7qsVXE2uSTsqXlhwG-6" vertex="1">
          <mxGeometry width="31.93548387096774" height="31.93548387096774" as="geometry" />
        </mxCell>
        <mxCell id="k5Z7qsVXE2uSTsqXlhwG-8" value="" style="ellipse;whiteSpace=wrap;html=1;aspect=fixed;fontSize=11;" parent="k5Z7qsVXE2uSTsqXlhwG-6" vertex="1">
          <mxGeometry x="5.32258064516129" y="5.8" width="21.29032258064516" height="21.29032258064516" as="geometry" />
        </mxCell>
        <mxCell id="k5Z7qsVXE2uSTsqXlhwG-9" value="" style="group;fontSize=11;" parent="k5Z7qsVXE2uSTsqXlhwG-2" vertex="1" connectable="0">
          <mxGeometry x="17.032258064516128" y="81.19999999999999" width="31.93548387096774" height="34.8" as="geometry" />
        </mxCell>
        <mxCell id="k5Z7qsVXE2uSTsqXlhwG-10" value="" style="ellipse;whiteSpace=wrap;html=1;aspect=fixed;fontSize=11;" parent="k5Z7qsVXE2uSTsqXlhwG-9" vertex="1">
          <mxGeometry width="31.93548387096774" height="31.93548387096774" as="geometry" />
        </mxCell>
        <mxCell id="k5Z7qsVXE2uSTsqXlhwG-11" value="" style="ellipse;whiteSpace=wrap;html=1;aspect=fixed;fontSize=11;" parent="k5Z7qsVXE2uSTsqXlhwG-9" vertex="1">
          <mxGeometry x="5.32258064516129" y="5.8" width="21.29032258064516" height="21.29032258064516" as="geometry" />
        </mxCell>
        <mxCell id="k5Z7qsVXE2uSTsqXlhwG-12" value="" style="ellipse;whiteSpace=wrap;html=1;aspect=fixed;fontSize=11;" parent="k5Z7qsVXE2uSTsqXlhwG-2" vertex="1">
          <mxGeometry x="27.677419354838708" y="243.6" width="10.64516129032258" height="10.64516129032258" as="geometry" />
        </mxCell>
        <mxCell id="k5Z7qsVXE2uSTsqXlhwG-13" value="" style="ellipse;whiteSpace=wrap;html=1;aspect=fixed;fontSize=11;" parent="k5Z7qsVXE2uSTsqXlhwG-2" vertex="1">
          <mxGeometry x="27.677419354838708" y="205.32" width="10.64516129032258" height="10.64516129032258" as="geometry" />
        </mxCell>
        <mxCell id="k5Z7qsVXE2uSTsqXlhwG-14" value="" style="ellipse;whiteSpace=wrap;html=1;aspect=fixed;fontSize=11;" parent="k5Z7qsVXE2uSTsqXlhwG-2" vertex="1">
          <mxGeometry x="78.77419354838709" y="205.32" width="10.64516129032258" height="10.64516129032258" as="geometry" />
        </mxCell>
        <mxCell id="k5Z7qsVXE2uSTsqXlhwG-15" value="" style="rounded=0;whiteSpace=wrap;html=1;fontSize=11;" parent="k5Z7qsVXE2uSTsqXlhwG-2" vertex="1">
          <mxGeometry x="73.45161290322581" y="243.6" width="21.29032258064516" height="11.6" as="geometry" />
        </mxCell>
        <mxCell id="k5Z7qsVXE2uSTsqXlhwG-16" value="&lt;font style=&quot;font-size: 8px;&quot;&gt;Mic&lt;/font&gt;" style="text;html=1;strokeColor=none;fillColor=none;align=center;verticalAlign=middle;whiteSpace=wrap;rounded=0;fontSize=8;" parent="k5Z7qsVXE2uSTsqXlhwG-2" vertex="1">
          <mxGeometry x="17.032258064516128" y="255.2" width="31.93548387096774" height="11.6" as="geometry" />
        </mxCell>
        <mxCell id="k5Z7qsVXE2uSTsqXlhwG-17" value="&lt;font style=&quot;font-size: 8px;&quot;&gt;Headphone&lt;/font&gt;" style="text;html=1;strokeColor=none;fillColor=none;align=center;verticalAlign=middle;whiteSpace=wrap;rounded=0;fontSize=8;" parent="k5Z7qsVXE2uSTsqXlhwG-2" vertex="1">
          <mxGeometry x="17.032258064516128" y="216.92" width="31.93548387096774" height="11.6" as="geometry" />
        </mxCell>
        <mxCell id="k5Z7qsVXE2uSTsqXlhwG-18" value="&lt;font style=&quot;font-size: 8px;&quot;&gt;CW Key&lt;/font&gt;" style="text;html=1;strokeColor=none;fillColor=none;align=center;verticalAlign=middle;whiteSpace=wrap;rounded=0;fontSize=8;" parent="k5Z7qsVXE2uSTsqXlhwG-2" vertex="1">
          <mxGeometry x="59.61290322580645" y="216.92" width="48.96774193548387" height="11.6" as="geometry" />
        </mxCell>
        <mxCell id="k5Z7qsVXE2uSTsqXlhwG-19" value="&lt;font style=&quot;font-size: 8px;&quot;&gt;USB&lt;/font&gt;" style="text;html=1;strokeColor=none;fillColor=none;align=center;verticalAlign=middle;whiteSpace=wrap;rounded=0;fontSize=8;" parent="k5Z7qsVXE2uSTsqXlhwG-2" vertex="1">
          <mxGeometry x="68.12903225806451" y="255.2" width="31.93548387096774" height="11.6" as="geometry" />
        </mxCell>
        <mxCell id="k5Z7qsVXE2uSTsqXlhwG-20" value="" style="group;fontSize=11;" parent="k5Z7qsVXE2uSTsqXlhwG-2" vertex="1" connectable="0">
          <mxGeometry x="611.0322580645161" y="29.439999999999998" width="31.93548387096774" height="34.8" as="geometry" />
        </mxCell>
        <mxCell id="k5Z7qsVXE2uSTsqXlhwG-21" value="" style="ellipse;whiteSpace=wrap;html=1;aspect=fixed;fontSize=11;" parent="k5Z7qsVXE2uSTsqXlhwG-20" vertex="1">
          <mxGeometry width="31.93548387096774" height="31.93548387096774" as="geometry" />
        </mxCell>
        <mxCell id="k5Z7qsVXE2uSTsqXlhwG-22" value="" style="ellipse;whiteSpace=wrap;html=1;aspect=fixed;fontSize=11;" parent="k5Z7qsVXE2uSTsqXlhwG-20" vertex="1">
          <mxGeometry x="5.32258064516129" y="5.8" width="21.29032258064516" height="21.29032258064516" as="geometry" />
        </mxCell>
        <mxCell id="k5Z7qsVXE2uSTsqXlhwG-23" value="" style="group;fontSize=11;" parent="k5Z7qsVXE2uSTsqXlhwG-2" vertex="1" connectable="0">
          <mxGeometry x="611.0322580645161" y="104.39999999999999" width="31.93548387096774" height="34.8" as="geometry" />
        </mxCell>
        <mxCell id="k5Z7qsVXE2uSTsqXlhwG-24" value="" style="ellipse;whiteSpace=wrap;html=1;aspect=fixed;fontSize=11;" parent="k5Z7qsVXE2uSTsqXlhwG-23" vertex="1">
          <mxGeometry width="31.93548387096774" height="31.93548387096774" as="geometry" />
        </mxCell>
        <mxCell id="k5Z7qsVXE2uSTsqXlhwG-25" value="" style="ellipse;whiteSpace=wrap;html=1;aspect=fixed;fontSize=11;" parent="k5Z7qsVXE2uSTsqXlhwG-23" vertex="1">
          <mxGeometry x="5.32258064516129" y="5.8" width="21.29032258064516" height="21.29032258064516" as="geometry" />
        </mxCell>
        <mxCell id="k5Z7qsVXE2uSTsqXlhwG-26" value="" style="rounded=0;whiteSpace=wrap;html=1;fillColor=#e51400;fontColor=#ffffff;strokeColor=none;fontSize=11;" parent="k5Z7qsVXE2uSTsqXlhwG-2" vertex="1">
          <mxGeometry x="38.32258064516129" y="23.2" width="21.29032258064516" height="11.6" as="geometry" />
        </mxCell>
        <mxCell id="k5Z7qsVXE2uSTsqXlhwG-27" value="" style="rounded=0;whiteSpace=wrap;html=1;fillColor=#999999;fontColor=#ffffff;strokeColor=none;fontSize=11;" parent="k5Z7qsVXE2uSTsqXlhwG-2" vertex="1">
          <mxGeometry x="73.45161290322581" y="92.8" width="21.29032258064516" height="11.6" as="geometry" />
        </mxCell>
        <mxCell id="k5Z7qsVXE2uSTsqXlhwG-28" value="" style="rounded=0;whiteSpace=wrap;html=1;fillColor=#999999;fontColor=#ffffff;strokeColor=none;fontSize=11;" parent="k5Z7qsVXE2uSTsqXlhwG-2" vertex="1">
          <mxGeometry x="73.45161290322581" y="120.6" width="21.29032258064516" height="11.6" as="geometry" />
        </mxCell>
        <mxCell id="k5Z7qsVXE2uSTsqXlhwG-29" value="" style="rounded=0;whiteSpace=wrap;html=1;fillColor=#999999;fontColor=#ffffff;strokeColor=none;fontSize=11;" parent="k5Z7qsVXE2uSTsqXlhwG-2" vertex="1">
          <mxGeometry x="521.6129032258065" y="266.79999999999995" width="21.29032258064516" height="11.6" as="geometry" />
        </mxCell>
        <mxCell id="k5Z7qsVXE2uSTsqXlhwG-30" value="" style="rounded=0;whiteSpace=wrap;html=1;fillColor=#999999;fontColor=#ffffff;strokeColor=none;fontSize=11;" parent="k5Z7qsVXE2uSTsqXlhwG-2" vertex="1">
          <mxGeometry x="600.3870967741935" y="266.79999999999995" width="21.29032258064516" height="11.6" as="geometry" />
        </mxCell>
        <mxCell id="k5Z7qsVXE2uSTsqXlhwG-31" value="" style="rounded=0;whiteSpace=wrap;html=1;fillColor=#999999;fontColor=#ffffff;strokeColor=none;fontSize=8;" parent="k5Z7qsVXE2uSTsqXlhwG-2" vertex="1">
          <mxGeometry x="528" y="11.6" width="21.29032258064516" height="11.6" as="geometry" />
        </mxCell>
        <mxCell id="k5Z7qsVXE2uSTsqXlhwG-32" value="" style="rounded=0;whiteSpace=wrap;html=1;fillColor=#999999;fontColor=#ffffff;strokeColor=none;fontSize=8;" parent="k5Z7qsVXE2uSTsqXlhwG-2" vertex="1">
          <mxGeometry x="553.5483870967741" y="11.6" width="21.29032258064516" height="11.6" as="geometry" />
        </mxCell>
        <mxCell id="k5Z7qsVXE2uSTsqXlhwG-33" value="" style="rounded=0;whiteSpace=wrap;html=1;fillColor=#999999;fontColor=#ffffff;strokeColor=none;fontSize=8;" parent="k5Z7qsVXE2uSTsqXlhwG-2" vertex="1">
          <mxGeometry x="579.0967741935483" y="11.6" width="21.29032258064516" height="11.6" as="geometry" />
        </mxCell>
        <mxCell id="k5Z7qsVXE2uSTsqXlhwG-34" value="" style="rounded=0;whiteSpace=wrap;html=1;fillColor=#999999;fontColor=#ffffff;strokeColor=none;fontSize=8;" parent="k5Z7qsVXE2uSTsqXlhwG-2" vertex="1">
          <mxGeometry x="528" y="46.4" width="21.29032258064516" height="11.6" as="geometry" />
        </mxCell>
        <mxCell id="k5Z7qsVXE2uSTsqXlhwG-35" value="" style="rounded=0;whiteSpace=wrap;html=1;fillColor=#999999;fontColor=#ffffff;strokeColor=none;fontSize=8;" parent="k5Z7qsVXE2uSTsqXlhwG-2" vertex="1">
          <mxGeometry x="553.5483870967741" y="46.4" width="21.29032258064516" height="11.6" as="geometry" />
        </mxCell>
        <mxCell id="k5Z7qsVXE2uSTsqXlhwG-36" value="" style="rounded=0;whiteSpace=wrap;html=1;fillColor=#999999;fontColor=#ffffff;strokeColor=none;fontSize=8;" parent="k5Z7qsVXE2uSTsqXlhwG-2" vertex="1">
          <mxGeometry x="579.0967741935483" y="46.4" width="21.29032258064516" height="11.6" as="geometry" />
        </mxCell>
        <mxCell id="k5Z7qsVXE2uSTsqXlhwG-37" value="" style="rounded=0;whiteSpace=wrap;html=1;fillColor=#999999;fontColor=#ffffff;strokeColor=none;fontSize=8;" parent="k5Z7qsVXE2uSTsqXlhwG-2" vertex="1">
          <mxGeometry x="528" y="81.19999999999999" width="21.29032258064516" height="11.6" as="geometry" />
        </mxCell>
        <mxCell id="k5Z7qsVXE2uSTsqXlhwG-38" value="" style="rounded=0;whiteSpace=wrap;html=1;fillColor=#999999;fontColor=#ffffff;strokeColor=none;fontSize=8;" parent="k5Z7qsVXE2uSTsqXlhwG-2" vertex="1">
          <mxGeometry x="553.5483870967741" y="81.19999999999999" width="21.29032258064516" height="11.6" as="geometry" />
        </mxCell>
        <mxCell id="k5Z7qsVXE2uSTsqXlhwG-39" value="" style="rounded=0;whiteSpace=wrap;html=1;fillColor=#999999;fontColor=#ffffff;strokeColor=none;fontSize=8;" parent="k5Z7qsVXE2uSTsqXlhwG-2" vertex="1">
          <mxGeometry x="579.0967741935483" y="81.19999999999999" width="21.29032258064516" height="11.6" as="geometry" />
        </mxCell>
        <mxCell id="k5Z7qsVXE2uSTsqXlhwG-40" value="" style="rounded=0;whiteSpace=wrap;html=1;fillColor=#999999;fontColor=#ffffff;strokeColor=none;fontSize=8;" parent="k5Z7qsVXE2uSTsqXlhwG-2" vertex="1">
          <mxGeometry x="528" y="115.99999999999999" width="21.29032258064516" height="11.6" as="geometry" />
        </mxCell>
        <mxCell id="k5Z7qsVXE2uSTsqXlhwG-41" value="" style="rounded=0;whiteSpace=wrap;html=1;fillColor=#999999;fontColor=#ffffff;strokeColor=none;fontSize=8;" parent="k5Z7qsVXE2uSTsqXlhwG-2" vertex="1">
          <mxGeometry x="553.5483870967741" y="115.99999999999999" width="21.29032258064516" height="11.6" as="geometry" />
        </mxCell>
        <mxCell id="k5Z7qsVXE2uSTsqXlhwG-42" value="" style="rounded=0;whiteSpace=wrap;html=1;fillColor=#999999;fontColor=#ffffff;strokeColor=none;fontSize=8;" parent="k5Z7qsVXE2uSTsqXlhwG-2" vertex="1">
          <mxGeometry x="579.0967741935483" y="115.99999999999999" width="21.29032258064516" height="11.6" as="geometry" />
        </mxCell>
        <mxCell id="k5Z7qsVXE2uSTsqXlhwG-43" value="&lt;font style=&quot;font-size: 8px;&quot;&gt;Power&lt;/font&gt;" style="text;html=1;strokeColor=none;fillColor=none;align=center;verticalAlign=middle;whiteSpace=wrap;rounded=0;fontSize=8;" parent="k5Z7qsVXE2uSTsqXlhwG-2" vertex="1">
          <mxGeometry x="33" y="32.48" width="31.93548387096774" height="11.6" as="geometry" />
        </mxCell>
        <mxCell id="k5Z7qsVXE2uSTsqXlhwG-44" value="&lt;font style=&quot;font-size: 8px;&quot;&gt;MOX&lt;/font&gt;" style="text;html=1;strokeColor=none;fillColor=none;align=center;verticalAlign=middle;whiteSpace=wrap;rounded=0;fontSize=8;" parent="k5Z7qsVXE2uSTsqXlhwG-2" vertex="1">
          <mxGeometry x="68.12903225806451" y="104.39999999999999" width="31.93548387096774" height="11.6" as="geometry" />
        </mxCell>
        <mxCell id="k5Z7qsVXE2uSTsqXlhwG-45" value="&lt;font style=&quot;font-size: 8px;&quot;&gt;Mode+&lt;/font&gt;" style="text;html=1;strokeColor=none;fillColor=none;align=center;verticalAlign=middle;whiteSpace=wrap;rounded=0;fontSize=8;" parent="k5Z7qsVXE2uSTsqXlhwG-2" vertex="1">
          <mxGeometry x="518.1612903225806" y="23.56" width="39.387096774193544" height="11.6" as="geometry" />
        </mxCell>
        <mxCell id="k5Z7qsVXE2uSTsqXlhwG-46" value="&lt;font style=&quot;font-size: 8px;&quot;&gt;Mode-&lt;/font&gt;" style="text;html=1;strokeColor=none;fillColor=none;align=center;verticalAlign=middle;whiteSpace=wrap;rounded=0;fontSize=8;" parent="k5Z7qsVXE2uSTsqXlhwG-2" vertex="1">
          <mxGeometry x="518.1612903225806" y="56.04" width="39.387096774193544" height="11.6" as="geometry" />
        </mxCell>
        <mxCell id="k5Z7qsVXE2uSTsqXlhwG-47" value="&lt;font style=&quot;font-size: 8px;&quot;&gt;Fil +&lt;/font&gt;" style="text;html=1;strokeColor=none;fillColor=none;align=center;verticalAlign=middle;whiteSpace=wrap;rounded=0;fontSize=8;" parent="k5Z7qsVXE2uSTsqXlhwG-2" vertex="1">
          <mxGeometry x="548.5" y="23.56" width="39.387096774193544" height="11.6" as="geometry" />
        </mxCell>
        <mxCell id="k5Z7qsVXE2uSTsqXlhwG-48" value="&lt;font style=&quot;font-size: 8px;&quot;&gt;Fil -&lt;/font&gt;" style="text;html=1;strokeColor=none;fillColor=none;align=center;verticalAlign=middle;whiteSpace=wrap;rounded=0;fontSize=8;" parent="k5Z7qsVXE2uSTsqXlhwG-2" vertex="1">
          <mxGeometry x="546.9032258064516" y="56.04" width="39.387096774193544" height="11.6" as="geometry" />
        </mxCell>
        <mxCell id="k5Z7qsVXE2uSTsqXlhwG-49" value="&lt;font style=&quot;font-size: 8px;&quot;&gt;Band+&lt;/font&gt;" style="text;html=1;strokeColor=none;fillColor=none;align=center;verticalAlign=middle;whiteSpace=wrap;rounded=0;fontSize=8;" parent="k5Z7qsVXE2uSTsqXlhwG-2" vertex="1">
          <mxGeometry x="573.516129032258" y="23.56" width="39.387096774193544" height="11.6" as="geometry" />
        </mxCell>
        <mxCell id="k5Z7qsVXE2uSTsqXlhwG-50" value="&lt;font style=&quot;font-size: 8px;&quot;&gt;Band-&lt;/font&gt;" style="text;html=1;strokeColor=none;fillColor=none;align=center;verticalAlign=middle;whiteSpace=wrap;rounded=0;fontSize=8;" parent="k5Z7qsVXE2uSTsqXlhwG-2" vertex="1">
          <mxGeometry x="573.516129032258" y="56.04" width="39.387096774193544" height="11.6" as="geometry" />
        </mxCell>
        <mxCell id="k5Z7qsVXE2uSTsqXlhwG-51" value="&lt;font style=&quot;font-size: 8px;&quot;&gt;A&amp;gt;B&lt;/font&gt;" style="text;html=1;strokeColor=none;fillColor=none;align=center;verticalAlign=middle;whiteSpace=wrap;rounded=0;fontSize=8;" parent="k5Z7qsVXE2uSTsqXlhwG-2" vertex="1">
          <mxGeometry x="521.3548387096774" y="93.16" width="39.387096774193544" height="11.6" as="geometry" />
        </mxCell>
        <mxCell id="k5Z7qsVXE2uSTsqXlhwG-52" value="&lt;font style=&quot;font-size: 8px;&quot;&gt;B&amp;gt;A&lt;/font&gt;" style="text;html=1;strokeColor=none;fillColor=none;align=center;verticalAlign=middle;whiteSpace=wrap;rounded=0;fontSize=8;" parent="k5Z7qsVXE2uSTsqXlhwG-2" vertex="1">
          <mxGeometry x="549.0322580645161" y="93.16" width="39.387096774193544" height="11.6" as="geometry" />
        </mxCell>
        <mxCell id="k5Z7qsVXE2uSTsqXlhwG-53" value="&lt;font style=&quot;font-size: 8px;&quot;&gt;Split&lt;/font&gt;" style="text;html=1;strokeColor=none;fillColor=none;align=center;verticalAlign=middle;whiteSpace=wrap;rounded=0;fontSize=8;" parent="k5Z7qsVXE2uSTsqXlhwG-2" vertex="1">
          <mxGeometry x="571.3870967741935" y="93.16" width="39.387096774193544" height="11.6" as="geometry" />
        </mxCell>
        <mxCell id="k5Z7qsVXE2uSTsqXlhwG-54" value="&lt;font style=&quot;font-size: 8px;&quot;&gt;FCN&lt;/font&gt;" style="text;html=1;strokeColor=none;fillColor=none;align=center;verticalAlign=middle;whiteSpace=wrap;rounded=0;fontSize=8;" parent="k5Z7qsVXE2uSTsqXlhwG-2" vertex="1">
          <mxGeometry x="521.3548387096774" y="127.96" width="39.387096774193544" height="11.6" as="geometry" />
        </mxCell>
        <mxCell id="k5Z7qsVXE2uSTsqXlhwG-55" value="&lt;font style=&quot;font-size: 8px;&quot;&gt;RIT&lt;/font&gt;" style="text;html=1;strokeColor=none;fillColor=none;align=center;verticalAlign=middle;whiteSpace=wrap;rounded=0;fontSize=8;" parent="k5Z7qsVXE2uSTsqXlhwG-2" vertex="1">
          <mxGeometry x="546.9032258064516" y="127.96" width="39.387096774193544" height="11.6" as="geometry" />
        </mxCell>
        <mxCell id="k5Z7qsVXE2uSTsqXlhwG-56" value="&lt;font style=&quot;font-size: 8px;&quot;&gt;XIT&lt;/font&gt;" style="text;html=1;strokeColor=none;fillColor=none;align=center;verticalAlign=middle;whiteSpace=wrap;rounded=0;fontSize=8;" parent="k5Z7qsVXE2uSTsqXlhwG-2" vertex="1">
          <mxGeometry x="571.3870967741935" y="127.96" width="39.387096774193544" height="11.6" as="geometry" />
        </mxCell>
        <mxCell id="k5Z7qsVXE2uSTsqXlhwG-57" value="&lt;font style=&quot;font-size: 8px;&quot;&gt;CTUNE&lt;/font&gt;" style="text;html=1;strokeColor=none;fillColor=none;align=center;verticalAlign=middle;whiteSpace=wrap;rounded=0;fontSize=8;" parent="k5Z7qsVXE2uSTsqXlhwG-2" vertex="1">
          <mxGeometry x="512.5622580645161" y="279.99999999999994" width="39.387096774193544" height="4.64" as="geometry" />
        </mxCell>
        <mxCell id="k5Z7qsVXE2uSTsqXlhwG-58" value="&lt;font style=&quot;font-size: 8px;&quot;&gt;LOCK&lt;/font&gt;" style="text;html=1;strokeColor=none;fillColor=none;align=center;verticalAlign=middle;whiteSpace=wrap;rounded=0;fontSize=8;" parent="k5Z7qsVXE2uSTsqXlhwG-2" vertex="1">
          <mxGeometry x="591.333870967742" y="279.99999999999994" width="39.387096774193544" height="4.64" as="geometry" />
        </mxCell>
        <mxCell id="k5Z7qsVXE2uSTsqXlhwG-59" value="&lt;font style=&quot;font-size: 8px;&quot;&gt;2Tone / Tune&lt;/font&gt;" style="text;html=1;strokeColor=none;fillColor=none;align=center;verticalAlign=middle;whiteSpace=wrap;rounded=0;fontSize=8;" parent="k5Z7qsVXE2uSTsqXlhwG-2" vertex="1">
          <mxGeometry x="59.05" y="132.4" width="50.79" height="11.6" as="geometry" />
        </mxCell>
        <mxCell id="k5Z7qsVXE2uSTsqXlhwG-60" value="" style="ellipse;whiteSpace=wrap;html=1;aspect=fixed;strokeColor=none;fillColor=#FF3333;fontSize=11;" parent="k5Z7qsVXE2uSTsqXlhwG-2" vertex="1">
          <mxGeometry x="63.87096774193548" y="25.52" width="4.258064516129032" height="4.258064516129032" as="geometry" />
        </mxCell>
        <mxCell id="k5Z7qsVXE2uSTsqXlhwG-61" value="&lt;font style=&quot;font-size: 8px;&quot;&gt;MIC/DRIVE&lt;/font&gt;" style="text;html=1;strokeColor=none;fillColor=none;align=center;verticalAlign=middle;whiteSpace=wrap;rounded=0;fontSize=8;" parent="k5Z7qsVXE2uSTsqXlhwG-2" vertex="1">
          <mxGeometry x="5.950000000000001" y="67.64" width="54.1" height="11.6" as="geometry" />
        </mxCell>
        <mxCell id="k5Z7qsVXE2uSTsqXlhwG-62" value="&lt;font style=&quot;font-size: 8px;&quot;&gt;RX AF/AGC&lt;/font&gt;" style="text;html=1;strokeColor=none;fillColor=none;align=center;verticalAlign=middle;whiteSpace=wrap;rounded=0;fontSize=8;" parent="k5Z7qsVXE2uSTsqXlhwG-2" vertex="1">
          <mxGeometry x="5" y="124.96" width="52.48" height="11.6" as="geometry" />
        </mxCell>
        <mxCell id="k5Z7qsVXE2uSTsqXlhwG-63" value="&lt;font style=&quot;font-size: 8px;&quot;&gt;Multi 1&lt;/font&gt;" style="text;html=1;strokeColor=none;fillColor=none;align=center;verticalAlign=middle;whiteSpace=wrap;rounded=0;fontSize=8;" parent="k5Z7qsVXE2uSTsqXlhwG-2" vertex="1">
          <mxGeometry x="602.516129032258" y="9.559999999999999" width="48.96774193548387" height="11.6" as="geometry" />
        </mxCell>
        <mxCell id="k5Z7qsVXE2uSTsqXlhwG-64" value="Multi 2" style="text;html=1;strokeColor=none;fillColor=none;align=center;verticalAlign=middle;whiteSpace=wrap;rounded=0;fontSize=8;" parent="k5Z7qsVXE2uSTsqXlhwG-2" vertex="1">
          <mxGeometry x="602.516129032258" y="92.19999999999999" width="48.96774193548387" height="11.6" as="geometry" />
        </mxCell>
        <mxCell id="vkE9iVCmeaFRQtFSjssB-4" value="&lt;font style=&quot;font-size: 8px;&quot;&gt;Band&lt;/font&gt;" style="text;html=1;strokeColor=none;fillColor=none;align=center;verticalAlign=middle;whiteSpace=wrap;rounded=0;fontSize=8;" parent="k5Z7qsVXE2uSTsqXlhwG-2" vertex="1">
          <mxGeometry x="528" y="156.33" width="26.55" height="11.6" as="geometry" />
        </mxCell>
      </root>
    </mxGraphModel>
  </diagram>
  <diagram name="Pushbutton Numbers" id="GGCvKiIEJ6NkXWfE5UA7">
    <mxGraphModel dx="973" dy="555" grid="1" gridSize="1.1810999999999998" guides="1" tooltips="1" connect="1" arrows="1" fold="1" page="1" pageScale="1" pageWidth="800" pageHeight="400" math="0" shadow="0">
      <root>
        <mxCell id="PnoAbcrSNveIQKFYIzmk-0" />
        <mxCell id="PnoAbcrSNveIQKFYIzmk-1" parent="PnoAbcrSNveIQKFYIzmk-0" />
        <mxCell id="Cv_UmFUOSEC3HczYZPW1-0" value="" style="group;fontSize=8;fillColor=default;" vertex="1" connectable="0" parent="PnoAbcrSNveIQKFYIzmk-1">
          <mxGeometry width="660.3911" height="290" as="geometry" />
        </mxCell>
        <mxCell id="Cv_UmFUOSEC3HczYZPW1-1" value="" style="rounded=1;whiteSpace=wrap;html=1;arcSize=6;fillColor=none;fontSize=11;" vertex="1" parent="Cv_UmFUOSEC3HczYZPW1-0">
          <mxGeometry width="660" height="290" as="geometry" />
        </mxCell>
        <mxCell id="Cv_UmFUOSEC3HczYZPW1-2" value="" style="rounded=0;whiteSpace=wrap;html=1;fontSize=11;" vertex="1" parent="Cv_UmFUOSEC3HczYZPW1-0">
          <mxGeometry x="138.38709677419354" y="34.8" width="330" height="208.79999999999998" as="geometry" />
        </mxCell>
        <mxCell id="Cv_UmFUOSEC3HczYZPW1-3" value="" style="ellipse;whiteSpace=wrap;html=1;aspect=fixed;fontSize=11;" vertex="1" parent="Cv_UmFUOSEC3HczYZPW1-0">
          <mxGeometry x="521.6129032258065" y="174" width="85.16129032258064" height="85.16129032258064" as="geometry" />
        </mxCell>
        <mxCell id="Cv_UmFUOSEC3HczYZPW1-4" value="" style="group;fontSize=11;" vertex="1" connectable="0" parent="Cv_UmFUOSEC3HczYZPW1-0">
          <mxGeometry x="17.032258064516128" y="141.51999999999998" width="31.93548387096774" height="34.8" as="geometry" />
        </mxCell>
        <mxCell id="Cv_UmFUOSEC3HczYZPW1-5" value="" style="ellipse;whiteSpace=wrap;html=1;aspect=fixed;fontSize=11;" vertex="1" parent="Cv_UmFUOSEC3HczYZPW1-4">
          <mxGeometry width="31.93548387096774" height="31.93548387096774" as="geometry" />
        </mxCell>
        <mxCell id="Cv_UmFUOSEC3HczYZPW1-6" value="" style="ellipse;whiteSpace=wrap;html=1;aspect=fixed;fontSize=11;" vertex="1" parent="Cv_UmFUOSEC3HczYZPW1-4">
          <mxGeometry x="5.32258064516129" y="5.8" width="21.29032258064516" height="21.29032258064516" as="geometry" />
        </mxCell>
        <mxCell id="Cv_UmFUOSEC3HczYZPW1-7" value="" style="group;fontSize=11;" vertex="1" connectable="0" parent="Cv_UmFUOSEC3HczYZPW1-0">
          <mxGeometry x="17.032258064516128" y="81.19999999999999" width="41.78884193548389" height="57.09110000000001" as="geometry" />
        </mxCell>
        <mxCell id="Cv_UmFUOSEC3HczYZPW1-8" value="" style="ellipse;whiteSpace=wrap;html=1;aspect=fixed;fontSize=11;" vertex="1" parent="Cv_UmFUOSEC3HczYZPW1-7">
          <mxGeometry width="31.93548387096774" height="31.93548387096774" as="geometry" />
        </mxCell>
        <mxCell id="Cv_UmFUOSEC3HczYZPW1-9" value="" style="ellipse;whiteSpace=wrap;html=1;aspect=fixed;fontSize=11;" vertex="1" parent="Cv_UmFUOSEC3HczYZPW1-7">
          <mxGeometry x="5.32258064516129" y="5.8" width="21.29032258064516" height="21.29032258064516" as="geometry" />
        </mxCell>
        <mxCell id="8dhD_NbWST-Ea3kdfHWU-4" value="PB11" style="text;html=1;strokeColor=none;fillColor=none;align=center;verticalAlign=middle;whiteSpace=wrap;rounded=0;fontColor=#FF3333;fontSize=10;" vertex="1" parent="Cv_UmFUOSEC3HczYZPW1-7">
          <mxGeometry x="-14.211158064516113" y="24.09110000000001" width="60" height="30" as="geometry" />
        </mxCell>
        <mxCell id="Cv_UmFUOSEC3HczYZPW1-10" value="" style="ellipse;whiteSpace=wrap;html=1;aspect=fixed;fontSize=11;" vertex="1" parent="Cv_UmFUOSEC3HczYZPW1-0">
          <mxGeometry x="27.677419354838708" y="243.6" width="10.64516129032258" height="10.64516129032258" as="geometry" />
        </mxCell>
        <mxCell id="Cv_UmFUOSEC3HczYZPW1-11" value="" style="ellipse;whiteSpace=wrap;html=1;aspect=fixed;fontSize=11;" vertex="1" parent="Cv_UmFUOSEC3HczYZPW1-0">
          <mxGeometry x="27.677419354838708" y="205.32" width="10.64516129032258" height="10.64516129032258" as="geometry" />
        </mxCell>
        <mxCell id="Cv_UmFUOSEC3HczYZPW1-12" value="" style="ellipse;whiteSpace=wrap;html=1;aspect=fixed;fontSize=11;" vertex="1" parent="Cv_UmFUOSEC3HczYZPW1-0">
          <mxGeometry x="78.77419354838709" y="205.32" width="10.64516129032258" height="10.64516129032258" as="geometry" />
        </mxCell>
        <mxCell id="Cv_UmFUOSEC3HczYZPW1-13" value="" style="rounded=0;whiteSpace=wrap;html=1;fontSize=11;" vertex="1" parent="Cv_UmFUOSEC3HczYZPW1-0">
          <mxGeometry x="73.45161290322581" y="243.6" width="21.29032258064516" height="11.6" as="geometry" />
        </mxCell>
        <mxCell id="Cv_UmFUOSEC3HczYZPW1-14" value="&lt;font style=&quot;font-size: 8px;&quot;&gt;Mic&lt;/font&gt;" style="text;html=1;strokeColor=none;fillColor=none;align=center;verticalAlign=middle;whiteSpace=wrap;rounded=0;fontSize=8;" vertex="1" parent="Cv_UmFUOSEC3HczYZPW1-0">
          <mxGeometry x="17.032258064516128" y="255.2" width="31.93548387096774" height="11.6" as="geometry" />
        </mxCell>
        <mxCell id="Cv_UmFUOSEC3HczYZPW1-15" value="&lt;font style=&quot;font-size: 8px;&quot;&gt;Headphone&lt;/font&gt;" style="text;html=1;strokeColor=none;fillColor=none;align=center;verticalAlign=middle;whiteSpace=wrap;rounded=0;fontSize=8;" vertex="1" parent="Cv_UmFUOSEC3HczYZPW1-0">
          <mxGeometry x="17.032258064516128" y="216.92" width="31.93548387096774" height="11.6" as="geometry" />
        </mxCell>
        <mxCell id="Cv_UmFUOSEC3HczYZPW1-16" value="&lt;font style=&quot;font-size: 8px;&quot;&gt;CW Key&lt;/font&gt;" style="text;html=1;strokeColor=none;fillColor=none;align=center;verticalAlign=middle;whiteSpace=wrap;rounded=0;fontSize=8;" vertex="1" parent="Cv_UmFUOSEC3HczYZPW1-0">
          <mxGeometry x="59.61290322580645" y="216.92" width="48.96774193548387" height="11.6" as="geometry" />
        </mxCell>
        <mxCell id="Cv_UmFUOSEC3HczYZPW1-17" value="&lt;font style=&quot;font-size: 8px;&quot;&gt;USB&lt;/font&gt;" style="text;html=1;strokeColor=none;fillColor=none;align=center;verticalAlign=middle;whiteSpace=wrap;rounded=0;fontSize=8;" vertex="1" parent="Cv_UmFUOSEC3HczYZPW1-0">
          <mxGeometry x="68.12903225806451" y="255.2" width="31.93548387096774" height="11.6" as="geometry" />
        </mxCell>
        <mxCell id="Cv_UmFUOSEC3HczYZPW1-18" value="" style="group;fontSize=11;" vertex="1" connectable="0" parent="Cv_UmFUOSEC3HczYZPW1-0">
          <mxGeometry x="611.0322580645161" y="29.439999999999998" width="31.93548387096774" height="34.8" as="geometry" />
        </mxCell>
        <mxCell id="Cv_UmFUOSEC3HczYZPW1-19" value="" style="ellipse;whiteSpace=wrap;html=1;aspect=fixed;fontSize=11;" vertex="1" parent="Cv_UmFUOSEC3HczYZPW1-18">
          <mxGeometry width="31.93548387096774" height="31.93548387096774" as="geometry" />
        </mxCell>
        <mxCell id="Cv_UmFUOSEC3HczYZPW1-20" value="" style="ellipse;whiteSpace=wrap;html=1;aspect=fixed;fontSize=11;" vertex="1" parent="Cv_UmFUOSEC3HczYZPW1-18">
          <mxGeometry x="5.32258064516129" y="5.8" width="21.29032258064516" height="21.29032258064516" as="geometry" />
        </mxCell>
        <mxCell id="Cv_UmFUOSEC3HczYZPW1-21" value="" style="group;fontSize=11;" vertex="1" connectable="0" parent="Cv_UmFUOSEC3HczYZPW1-0">
          <mxGeometry x="611.0322580645161" y="104.39999999999999" width="31.93548387096774" height="34.8" as="geometry" />
        </mxCell>
        <mxCell id="Cv_UmFUOSEC3HczYZPW1-22" value="" style="ellipse;whiteSpace=wrap;html=1;aspect=fixed;fontSize=11;" vertex="1" parent="Cv_UmFUOSEC3HczYZPW1-21">
          <mxGeometry width="31.93548387096774" height="31.93548387096774" as="geometry" />
        </mxCell>
        <mxCell id="Cv_UmFUOSEC3HczYZPW1-23" value="" style="ellipse;whiteSpace=wrap;html=1;aspect=fixed;fontSize=11;" vertex="1" parent="Cv_UmFUOSEC3HczYZPW1-21">
          <mxGeometry x="5.32258064516129" y="5.8" width="21.29032258064516" height="21.29032258064516" as="geometry" />
        </mxCell>
        <mxCell id="Cv_UmFUOSEC3HczYZPW1-24" value="" style="rounded=0;whiteSpace=wrap;html=1;fillColor=#e51400;fontColor=#ffffff;strokeColor=none;fontSize=11;" vertex="1" parent="Cv_UmFUOSEC3HczYZPW1-0">
          <mxGeometry x="38.32258064516129" y="23.2" width="21.29032258064516" height="11.6" as="geometry" />
        </mxCell>
        <mxCell id="Cv_UmFUOSEC3HczYZPW1-25" value="" style="rounded=0;whiteSpace=wrap;html=1;fillColor=#999999;fontColor=#ffffff;strokeColor=none;fontSize=11;" vertex="1" parent="Cv_UmFUOSEC3HczYZPW1-0">
          <mxGeometry x="73.45161290322581" y="92.8" width="21.29032258064516" height="11.6" as="geometry" />
        </mxCell>
        <mxCell id="Cv_UmFUOSEC3HczYZPW1-26" value="" style="rounded=0;whiteSpace=wrap;html=1;fillColor=#999999;fontColor=#ffffff;strokeColor=none;fontSize=11;" vertex="1" parent="Cv_UmFUOSEC3HczYZPW1-0">
          <mxGeometry x="73.45161290322581" y="120.6" width="21.29032258064516" height="11.6" as="geometry" />
        </mxCell>
        <mxCell id="Cv_UmFUOSEC3HczYZPW1-27" value="" style="rounded=0;whiteSpace=wrap;html=1;fillColor=#999999;fontColor=#ffffff;strokeColor=none;fontSize=11;" vertex="1" parent="Cv_UmFUOSEC3HczYZPW1-0">
          <mxGeometry x="521.6129032258065" y="266.79999999999995" width="21.29032258064516" height="11.6" as="geometry" />
        </mxCell>
        <mxCell id="Cv_UmFUOSEC3HczYZPW1-28" value="" style="rounded=0;whiteSpace=wrap;html=1;fillColor=#999999;fontColor=#ffffff;strokeColor=none;fontSize=11;" vertex="1" parent="Cv_UmFUOSEC3HczYZPW1-0">
          <mxGeometry x="600.3870967741935" y="266.79999999999995" width="21.29032258064516" height="11.6" as="geometry" />
        </mxCell>
        <mxCell id="Cv_UmFUOSEC3HczYZPW1-29" value="" style="rounded=0;whiteSpace=wrap;html=1;fillColor=#999999;fontColor=#ffffff;strokeColor=none;fontSize=8;" vertex="1" parent="Cv_UmFUOSEC3HczYZPW1-0">
          <mxGeometry x="528" y="11.6" width="21.29032258064516" height="11.6" as="geometry" />
        </mxCell>
        <mxCell id="Cv_UmFUOSEC3HczYZPW1-30" value="" style="rounded=0;whiteSpace=wrap;html=1;fillColor=#999999;fontColor=#ffffff;strokeColor=none;fontSize=8;" vertex="1" parent="Cv_UmFUOSEC3HczYZPW1-0">
          <mxGeometry x="553.5483870967741" y="11.6" width="21.29032258064516" height="11.6" as="geometry" />
        </mxCell>
        <mxCell id="Cv_UmFUOSEC3HczYZPW1-31" value="" style="rounded=0;whiteSpace=wrap;html=1;fillColor=#999999;fontColor=#ffffff;strokeColor=none;fontSize=8;" vertex="1" parent="Cv_UmFUOSEC3HczYZPW1-0">
          <mxGeometry x="579.0967741935483" y="11.6" width="21.29032258064516" height="11.6" as="geometry" />
        </mxCell>
        <mxCell id="Cv_UmFUOSEC3HczYZPW1-32" value="" style="rounded=0;whiteSpace=wrap;html=1;fillColor=#999999;fontColor=#ffffff;strokeColor=none;fontSize=8;" vertex="1" parent="Cv_UmFUOSEC3HczYZPW1-0">
          <mxGeometry x="528" y="46.4" width="21.29032258064516" height="11.6" as="geometry" />
        </mxCell>
        <mxCell id="Cv_UmFUOSEC3HczYZPW1-33" value="" style="rounded=0;whiteSpace=wrap;html=1;fillColor=#999999;fontColor=#ffffff;strokeColor=none;fontSize=8;" vertex="1" parent="Cv_UmFUOSEC3HczYZPW1-0">
          <mxGeometry x="553.5483870967741" y="46.4" width="21.29032258064516" height="11.6" as="geometry" />
        </mxCell>
        <mxCell id="Cv_UmFUOSEC3HczYZPW1-34" value="" style="rounded=0;whiteSpace=wrap;html=1;fillColor=#999999;fontColor=#ffffff;strokeColor=none;fontSize=8;" vertex="1" parent="Cv_UmFUOSEC3HczYZPW1-0">
          <mxGeometry x="579.0967741935483" y="46.4" width="21.29032258064516" height="11.6" as="geometry" />
        </mxCell>
        <mxCell id="Cv_UmFUOSEC3HczYZPW1-35" value="" style="rounded=0;whiteSpace=wrap;html=1;fillColor=#999999;fontColor=#ffffff;strokeColor=none;fontSize=8;" vertex="1" parent="Cv_UmFUOSEC3HczYZPW1-0">
          <mxGeometry x="528" y="81.19999999999999" width="21.29032258064516" height="11.6" as="geometry" />
        </mxCell>
        <mxCell id="Cv_UmFUOSEC3HczYZPW1-36" value="" style="rounded=0;whiteSpace=wrap;html=1;fillColor=#999999;fontColor=#ffffff;strokeColor=none;fontSize=8;" vertex="1" parent="Cv_UmFUOSEC3HczYZPW1-0">
          <mxGeometry x="553.5483870967741" y="81.19999999999999" width="21.29032258064516" height="11.6" as="geometry" />
        </mxCell>
        <mxCell id="Cv_UmFUOSEC3HczYZPW1-37" value="" style="rounded=0;whiteSpace=wrap;html=1;fillColor=#999999;fontColor=#ffffff;strokeColor=none;fontSize=8;" vertex="1" parent="Cv_UmFUOSEC3HczYZPW1-0">
          <mxGeometry x="579.0967741935483" y="81.19999999999999" width="21.29032258064516" height="11.6" as="geometry" />
        </mxCell>
        <mxCell id="Cv_UmFUOSEC3HczYZPW1-38" value="" style="rounded=0;whiteSpace=wrap;html=1;fillColor=#999999;fontColor=#ffffff;strokeColor=none;fontSize=8;" vertex="1" parent="Cv_UmFUOSEC3HczYZPW1-0">
          <mxGeometry x="528" y="115.99999999999999" width="21.29032258064516" height="11.6" as="geometry" />
        </mxCell>
        <mxCell id="Cv_UmFUOSEC3HczYZPW1-39" value="" style="rounded=0;whiteSpace=wrap;html=1;fillColor=#999999;fontColor=#ffffff;strokeColor=none;fontSize=8;" vertex="1" parent="Cv_UmFUOSEC3HczYZPW1-0">
          <mxGeometry x="553.5483870967741" y="115.99999999999999" width="21.29032258064516" height="11.6" as="geometry" />
        </mxCell>
        <mxCell id="Cv_UmFUOSEC3HczYZPW1-40" value="" style="rounded=0;whiteSpace=wrap;html=1;fillColor=#999999;fontColor=#ffffff;strokeColor=none;fontSize=8;" vertex="1" parent="Cv_UmFUOSEC3HczYZPW1-0">
          <mxGeometry x="579.0967741935483" y="115.99999999999999" width="21.29032258064516" height="11.6" as="geometry" />
        </mxCell>
        <mxCell id="Cv_UmFUOSEC3HczYZPW1-41" value="&lt;font style=&quot;font-size: 8px;&quot;&gt;Power&lt;/font&gt;" style="text;html=1;strokeColor=none;fillColor=none;align=center;verticalAlign=middle;whiteSpace=wrap;rounded=0;fontSize=8;" vertex="1" parent="Cv_UmFUOSEC3HczYZPW1-0">
          <mxGeometry x="33" y="32.48" width="31.93548387096774" height="11.6" as="geometry" />
        </mxCell>
        <mxCell id="Cv_UmFUOSEC3HczYZPW1-42" value="&lt;font style=&quot;font-size: 8px;&quot;&gt;MOX&lt;/font&gt;" style="text;html=1;strokeColor=none;fillColor=none;align=center;verticalAlign=middle;whiteSpace=wrap;rounded=0;fontSize=8;" vertex="1" parent="Cv_UmFUOSEC3HczYZPW1-0">
          <mxGeometry x="68.12903225806451" y="104.39999999999999" width="31.93548387096774" height="11.6" as="geometry" />
        </mxCell>
        <mxCell id="Cv_UmFUOSEC3HczYZPW1-43" value="&lt;font style=&quot;font-size: 8px;&quot;&gt;Mode+&lt;/font&gt;" style="text;html=1;strokeColor=none;fillColor=none;align=center;verticalAlign=middle;whiteSpace=wrap;rounded=0;fontSize=8;" vertex="1" parent="Cv_UmFUOSEC3HczYZPW1-0">
          <mxGeometry x="518.1612903225806" y="23.56" width="39.387096774193544" height="11.6" as="geometry" />
        </mxCell>
        <mxCell id="Cv_UmFUOSEC3HczYZPW1-44" value="&lt;font style=&quot;font-size: 8px;&quot;&gt;Mode-&lt;/font&gt;" style="text;html=1;strokeColor=none;fillColor=none;align=center;verticalAlign=middle;whiteSpace=wrap;rounded=0;fontSize=8;" vertex="1" parent="Cv_UmFUOSEC3HczYZPW1-0">
          <mxGeometry x="518.1612903225806" y="56.04" width="39.387096774193544" height="11.6" as="geometry" />
        </mxCell>
        <mxCell id="Cv_UmFUOSEC3HczYZPW1-45" value="&lt;font style=&quot;font-size: 8px;&quot;&gt;Fil +&lt;/font&gt;" style="text;html=1;strokeColor=none;fillColor=none;align=center;verticalAlign=middle;whiteSpace=wrap;rounded=0;fontSize=8;" vertex="1" parent="Cv_UmFUOSEC3HczYZPW1-0">
          <mxGeometry x="548.5" y="23.56" width="39.387096774193544" height="11.6" as="geometry" />
        </mxCell>
        <mxCell id="Cv_UmFUOSEC3HczYZPW1-46" value="&lt;font style=&quot;font-size: 8px;&quot;&gt;Fil -&lt;/font&gt;" style="text;html=1;strokeColor=none;fillColor=none;align=center;verticalAlign=middle;whiteSpace=wrap;rounded=0;fontSize=8;" vertex="1" parent="Cv_UmFUOSEC3HczYZPW1-0">
          <mxGeometry x="546.9032258064516" y="56.04" width="39.387096774193544" height="11.6" as="geometry" />
        </mxCell>
        <mxCell id="Cv_UmFUOSEC3HczYZPW1-47" value="&lt;font style=&quot;font-size: 8px;&quot;&gt;Band+&lt;/font&gt;" style="text;html=1;strokeColor=none;fillColor=none;align=center;verticalAlign=middle;whiteSpace=wrap;rounded=0;fontSize=8;" vertex="1" parent="Cv_UmFUOSEC3HczYZPW1-0">
          <mxGeometry x="573.516129032258" y="23.56" width="39.387096774193544" height="11.6" as="geometry" />
        </mxCell>
        <mxCell id="Cv_UmFUOSEC3HczYZPW1-48" value="&lt;font style=&quot;font-size: 8px;&quot;&gt;Band-&lt;/font&gt;" style="text;html=1;strokeColor=none;fillColor=none;align=center;verticalAlign=middle;whiteSpace=wrap;rounded=0;fontSize=8;" vertex="1" parent="Cv_UmFUOSEC3HczYZPW1-0">
          <mxGeometry x="573.516129032258" y="56.04" width="39.387096774193544" height="11.6" as="geometry" />
        </mxCell>
        <mxCell id="Cv_UmFUOSEC3HczYZPW1-49" value="&lt;font style=&quot;font-size: 8px;&quot;&gt;A&amp;gt;B&lt;/font&gt;" style="text;html=1;strokeColor=none;fillColor=none;align=center;verticalAlign=middle;whiteSpace=wrap;rounded=0;fontSize=8;" vertex="1" parent="Cv_UmFUOSEC3HczYZPW1-0">
          <mxGeometry x="521.3548387096774" y="93.16" width="39.387096774193544" height="11.6" as="geometry" />
        </mxCell>
        <mxCell id="Cv_UmFUOSEC3HczYZPW1-50" value="&lt;font style=&quot;font-size: 8px;&quot;&gt;B&amp;gt;A&lt;/font&gt;" style="text;html=1;strokeColor=none;fillColor=none;align=center;verticalAlign=middle;whiteSpace=wrap;rounded=0;fontSize=8;" vertex="1" parent="Cv_UmFUOSEC3HczYZPW1-0">
          <mxGeometry x="549.0322580645161" y="93.16" width="39.387096774193544" height="11.6" as="geometry" />
        </mxCell>
        <mxCell id="Cv_UmFUOSEC3HczYZPW1-51" value="&lt;font style=&quot;font-size: 8px;&quot;&gt;Split&lt;/font&gt;" style="text;html=1;strokeColor=none;fillColor=none;align=center;verticalAlign=middle;whiteSpace=wrap;rounded=0;fontSize=8;" vertex="1" parent="Cv_UmFUOSEC3HczYZPW1-0">
          <mxGeometry x="571.3870967741935" y="93.16" width="39.387096774193544" height="11.6" as="geometry" />
        </mxCell>
        <mxCell id="Cv_UmFUOSEC3HczYZPW1-52" value="&lt;font style=&quot;font-size: 8px;&quot;&gt;FCN&lt;/font&gt;" style="text;html=1;strokeColor=none;fillColor=none;align=center;verticalAlign=middle;whiteSpace=wrap;rounded=0;fontSize=8;" vertex="1" parent="Cv_UmFUOSEC3HczYZPW1-0">
          <mxGeometry x="521.3548387096774" y="127.96" width="39.387096774193544" height="11.6" as="geometry" />
        </mxCell>
        <mxCell id="Cv_UmFUOSEC3HczYZPW1-53" value="&lt;font style=&quot;font-size: 8px;&quot;&gt;RIT&lt;/font&gt;" style="text;html=1;strokeColor=none;fillColor=none;align=center;verticalAlign=middle;whiteSpace=wrap;rounded=0;fontSize=8;" vertex="1" parent="Cv_UmFUOSEC3HczYZPW1-0">
          <mxGeometry x="546.9032258064516" y="127.96" width="39.387096774193544" height="11.6" as="geometry" />
        </mxCell>
        <mxCell id="Cv_UmFUOSEC3HczYZPW1-54" value="&lt;font style=&quot;font-size: 8px;&quot;&gt;XIT&lt;/font&gt;" style="text;html=1;strokeColor=none;fillColor=none;align=center;verticalAlign=middle;whiteSpace=wrap;rounded=0;fontSize=8;" vertex="1" parent="Cv_UmFUOSEC3HczYZPW1-0">
          <mxGeometry x="571.3870967741935" y="127.96" width="39.387096774193544" height="11.6" as="geometry" />
        </mxCell>
        <mxCell id="Cv_UmFUOSEC3HczYZPW1-55" value="&lt;font style=&quot;font-size: 8px;&quot;&gt;CTUNE&lt;/font&gt;" style="text;html=1;strokeColor=none;fillColor=none;align=center;verticalAlign=middle;whiteSpace=wrap;rounded=0;fontSize=8;" vertex="1" parent="Cv_UmFUOSEC3HczYZPW1-0">
          <mxGeometry x="512.5622580645161" y="279.99999999999994" width="39.387096774193544" height="4.64" as="geometry" />
        </mxCell>
        <mxCell id="Cv_UmFUOSEC3HczYZPW1-56" value="&lt;font style=&quot;font-size: 8px;&quot;&gt;LOCK&lt;/font&gt;" style="text;html=1;strokeColor=none;fillColor=none;align=center;verticalAlign=middle;whiteSpace=wrap;rounded=0;fontSize=8;" vertex="1" parent="Cv_UmFUOSEC3HczYZPW1-0">
          <mxGeometry x="591.333870967742" y="279.99999999999994" width="39.387096774193544" height="4.64" as="geometry" />
        </mxCell>
        <mxCell id="Cv_UmFUOSEC3HczYZPW1-57" value="&lt;font style=&quot;font-size: 8px;&quot;&gt;2Tone / Tune&lt;/font&gt;" style="text;html=1;strokeColor=none;fillColor=none;align=center;verticalAlign=middle;whiteSpace=wrap;rounded=0;fontSize=8;" vertex="1" parent="Cv_UmFUOSEC3HczYZPW1-0">
          <mxGeometry x="59.05" y="132.4" width="50.79" height="11.6" as="geometry" />
        </mxCell>
        <mxCell id="Cv_UmFUOSEC3HczYZPW1-58" value="" style="ellipse;whiteSpace=wrap;html=1;aspect=fixed;strokeColor=none;fillColor=#FF3333;fontSize=11;" vertex="1" parent="Cv_UmFUOSEC3HczYZPW1-0">
          <mxGeometry x="63.87096774193548" y="25.52" width="4.258064516129032" height="4.258064516129032" as="geometry" />
        </mxCell>
        <mxCell id="Cv_UmFUOSEC3HczYZPW1-59" value="&lt;font style=&quot;font-size: 8px;&quot;&gt;MIC/DRIVE&lt;/font&gt;" style="text;html=1;strokeColor=none;fillColor=none;align=center;verticalAlign=middle;whiteSpace=wrap;rounded=0;fontSize=8;" vertex="1" parent="Cv_UmFUOSEC3HczYZPW1-0">
          <mxGeometry x="5.950000000000001" y="67.64" width="54.1" height="11.6" as="geometry" />
        </mxCell>
        <mxCell id="Cv_UmFUOSEC3HczYZPW1-60" value="&lt;font style=&quot;font-size: 8px;&quot;&gt;RX AF/AGC&lt;/font&gt;" style="text;html=1;strokeColor=none;fillColor=none;align=center;verticalAlign=middle;whiteSpace=wrap;rounded=0;fontSize=8;" vertex="1" parent="Cv_UmFUOSEC3HczYZPW1-0">
          <mxGeometry x="5" y="124.96" width="52.48" height="11.6" as="geometry" />
        </mxCell>
        <mxCell id="Cv_UmFUOSEC3HczYZPW1-61" value="&lt;font style=&quot;font-size: 8px;&quot;&gt;Multi 1&lt;/font&gt;" style="text;html=1;strokeColor=none;fillColor=none;align=center;verticalAlign=middle;whiteSpace=wrap;rounded=0;fontSize=8;" vertex="1" parent="Cv_UmFUOSEC3HczYZPW1-0">
          <mxGeometry x="602.516129032258" y="9.559999999999999" width="48.96774193548387" height="11.6" as="geometry" />
        </mxCell>
        <mxCell id="Cv_UmFUOSEC3HczYZPW1-62" value="Multi 2" style="text;html=1;strokeColor=none;fillColor=none;align=center;verticalAlign=middle;whiteSpace=wrap;rounded=0;fontSize=8;" vertex="1" parent="Cv_UmFUOSEC3HczYZPW1-0">
          <mxGeometry x="602.516129032258" y="92.19999999999999" width="48.96774193548387" height="11.6" as="geometry" />
        </mxCell>
        <mxCell id="Cv_UmFUOSEC3HczYZPW1-63" value="&lt;font style=&quot;font-size: 8px;&quot;&gt;Band&lt;/font&gt;" style="text;html=1;strokeColor=none;fillColor=none;align=center;verticalAlign=middle;whiteSpace=wrap;rounded=0;fontSize=8;" vertex="1" parent="Cv_UmFUOSEC3HczYZPW1-0">
          <mxGeometry x="528" y="156.33" width="26.55" height="11.6" as="geometry" />
        </mxCell>
        <mxCell id="8dhD_NbWST-Ea3kdfHWU-5" value="PB47" style="text;html=1;strokeColor=none;fillColor=none;align=center;verticalAlign=middle;whiteSpace=wrap;rounded=0;fontColor=#FF3333;fontSize=10;" vertex="1" parent="Cv_UmFUOSEC3HczYZPW1-0">
          <mxGeometry x="77.95110000000001" y="83.0011" width="60" height="30" as="geometry" />
        </mxCell>
        <mxCell id="8dhD_NbWST-Ea3kdfHWU-6" value="PB50" style="text;html=1;strokeColor=none;fillColor=none;align=center;verticalAlign=middle;whiteSpace=wrap;rounded=0;fontColor=#FF3333;fontSize=10;" vertex="1" parent="Cv_UmFUOSEC3HczYZPW1-0">
          <mxGeometry x="78.77220000000001" y="109.56219999999999" width="60" height="30" as="geometry" />
        </mxCell>
        <mxCell id="8dhD_NbWST-Ea3kdfHWU-7" value="PB45" style="text;html=1;strokeColor=none;fillColor=none;align=center;verticalAlign=middle;whiteSpace=wrap;rounded=0;fontColor=#FF3333;fontSize=10;" vertex="1" parent="Cv_UmFUOSEC3HczYZPW1-0">
          <mxGeometry x="505.51" y="253.09" width="28.35" height="15.82" as="geometry" />
        </mxCell>
        <mxCell id="8dhD_NbWST-Ea3kdfHWU-8" value="PB44" style="text;html=1;strokeColor=none;fillColor=none;align=center;verticalAlign=middle;whiteSpace=wrap;rounded=0;fontColor=#FF3333;fontSize=10;" vertex="1" parent="Cv_UmFUOSEC3HczYZPW1-0">
          <mxGeometry x="597.6411" y="250.9811" width="28.35" height="15.82" as="geometry" />
        </mxCell>
        <mxCell id="8dhD_NbWST-Ea3kdfHWU-9" value="" style="rounded=1;whiteSpace=wrap;html=1;arcSize=6;fillColor=none;fontSize=11;" vertex="1" parent="Cv_UmFUOSEC3HczYZPW1-0">
          <mxGeometry x="1.1810999999999998" y="1.1810999999999998" width="660" height="290" as="geometry" />
        </mxCell>
        <mxCell id="8dhD_NbWST-Ea3kdfHWU-10" value="PB31" style="text;html=1;strokeColor=none;fillColor=none;align=center;verticalAlign=middle;whiteSpace=wrap;rounded=0;fontColor=#FF3333;fontSize=10;" vertex="1" parent="Cv_UmFUOSEC3HczYZPW1-0">
          <mxGeometry x="521.6111" y="-0.35890000000000555" width="28.35" height="15.82" as="geometry" />
        </mxCell>
        <mxCell id="8dhD_NbWST-Ea3kdfHWU-11" value="PB32" style="text;html=1;strokeColor=none;fillColor=none;align=center;verticalAlign=middle;whiteSpace=wrap;rounded=0;fontColor=#FF3333;fontSize=10;" vertex="1" parent="Cv_UmFUOSEC3HczYZPW1-0">
          <mxGeometry x="552.4222" y="-0.35780000000000545" width="28.35" height="15.82" as="geometry" />
        </mxCell>
        <mxCell id="8dhD_NbWST-Ea3kdfHWU-13" value="PB34" style="text;html=1;strokeColor=none;fillColor=none;align=center;verticalAlign=middle;whiteSpace=wrap;rounded=0;fontColor=#FF3333;fontSize=10;" vertex="1" parent="Cv_UmFUOSEC3HczYZPW1-0">
          <mxGeometry x="521.6122" y="33.072199999999995" width="28.35" height="15.82" as="geometry" />
        </mxCell>
        <mxCell id="8dhD_NbWST-Ea3kdfHWU-14" value="PB35" style="text;html=1;strokeColor=none;fillColor=none;align=center;verticalAlign=middle;whiteSpace=wrap;rounded=0;fontColor=#FF3333;fontSize=10;" vertex="1" parent="Cv_UmFUOSEC3HczYZPW1-0">
          <mxGeometry x="552.4233" y="33.073299999999996" width="28.35" height="15.82" as="geometry" />
        </mxCell>
        <mxCell id="8dhD_NbWST-Ea3kdfHWU-15" value="PB33" style="text;html=1;strokeColor=none;fillColor=none;align=center;verticalAlign=middle;whiteSpace=wrap;rounded=0;fontColor=#FF3333;fontSize=10;" vertex="1" parent="Cv_UmFUOSEC3HczYZPW1-0">
          <mxGeometry x="579.0944000000001" y="33.0744" width="28.35" height="15.82" as="geometry" />
        </mxCell>
        <mxCell id="8dhD_NbWST-Ea3kdfHWU-16" value="PB36" style="text;html=1;strokeColor=none;fillColor=none;align=center;verticalAlign=middle;whiteSpace=wrap;rounded=0;fontColor=#FF3333;fontSize=10;" vertex="1" parent="Cv_UmFUOSEC3HczYZPW1-0">
          <mxGeometry x="521.6122" y="67.1822" width="28.35" height="15.82" as="geometry" />
        </mxCell>
        <mxCell id="8dhD_NbWST-Ea3kdfHWU-17" value="PB37" style="text;html=1;strokeColor=none;fillColor=none;align=center;verticalAlign=middle;whiteSpace=wrap;rounded=0;fontColor=#FF3333;fontSize=10;" vertex="1" parent="Cv_UmFUOSEC3HczYZPW1-0">
          <mxGeometry x="552.4233" y="67.18329999999999" width="28.35" height="15.82" as="geometry" />
        </mxCell>
        <mxCell id="8dhD_NbWST-Ea3kdfHWU-18" value="PB38" style="text;html=1;strokeColor=none;fillColor=none;align=center;verticalAlign=middle;whiteSpace=wrap;rounded=0;fontColor=#FF3333;fontSize=10;" vertex="1" parent="Cv_UmFUOSEC3HczYZPW1-0">
          <mxGeometry x="579.0944000000001" y="67.1844" width="28.35" height="15.82" as="geometry" />
        </mxCell>
        <mxCell id="8dhD_NbWST-Ea3kdfHWU-19" value="PB21" style="text;html=1;strokeColor=none;fillColor=none;align=center;verticalAlign=middle;whiteSpace=wrap;rounded=0;fontColor=#FF3333;fontSize=10;" vertex="1" parent="Cv_UmFUOSEC3HczYZPW1-0">
          <mxGeometry x="521.1622" y="101.8322" width="28.35" height="15.82" as="geometry" />
        </mxCell>
        <mxCell id="8dhD_NbWST-Ea3kdfHWU-20" value="PB42" style="text;html=1;strokeColor=none;fillColor=none;align=center;verticalAlign=middle;whiteSpace=wrap;rounded=0;fontColor=#FF3333;fontSize=10;" vertex="1" parent="Cv_UmFUOSEC3HczYZPW1-0">
          <mxGeometry x="551.9733" y="101.8333" width="28.35" height="15.82" as="geometry" />
        </mxCell>
        <mxCell id="8dhD_NbWST-Ea3kdfHWU-21" value="PB43" style="text;html=1;strokeColor=none;fillColor=none;align=center;verticalAlign=middle;whiteSpace=wrap;rounded=0;fontColor=#FF3333;fontSize=10;" vertex="1" parent="Cv_UmFUOSEC3HczYZPW1-0">
          <mxGeometry x="578.6444" y="101.8344" width="28.35" height="15.82" as="geometry" />
        </mxCell>
        <mxCell id="8dhD_NbWST-Ea3kdfHWU-1" value="PB9" style="text;html=1;strokeColor=none;fillColor=none;align=center;verticalAlign=middle;whiteSpace=wrap;rounded=0;fontColor=#FF3333;fontSize=10;" vertex="1" parent="PnoAbcrSNveIQKFYIzmk-1">
          <mxGeometry x="595.27" y="130" width="65.12" height="30" as="geometry" />
        </mxCell>
        <mxCell id="8dhD_NbWST-Ea3kdfHWU-2" value="PB5" style="text;html=1;strokeColor=none;fillColor=none;align=center;verticalAlign=middle;whiteSpace=wrap;rounded=0;fontColor=#FF3333;fontSize=10;" vertex="1" parent="PnoAbcrSNveIQKFYIzmk-1">
          <mxGeometry x="597.6411" y="54.33109999999999" width="65.12" height="30" as="geometry" />
        </mxCell>
        <mxCell id="8dhD_NbWST-Ea3kdfHWU-3" value="PB1" style="text;html=1;strokeColor=none;fillColor=none;align=center;verticalAlign=middle;whiteSpace=wrap;rounded=0;fontColor=#FF3333;fontSize=10;" vertex="1" parent="PnoAbcrSNveIQKFYIzmk-1">
          <mxGeometry x="3.3600000000000136" y="164.8" width="60" height="30" as="geometry" />
        </mxCell>
        <mxCell id="8dhD_NbWST-Ea3kdfHWU-12" value="PB30" style="text;html=1;strokeColor=none;fillColor=none;align=center;verticalAlign=middle;whiteSpace=wrap;rounded=0;fontColor=#FF3333;fontSize=10;" vertex="1" parent="PnoAbcrSNveIQKFYIzmk-1">
          <mxGeometry x="579.0933" y="-0.35670000000000535" width="28.35" height="15.82" as="geometry" />
        </mxCell>
      </root>
    </mxGraphModel>
  </diagram>
  <diagram name="Encoder Numbers" id="Y1QPlC2TEiANQXbU7lCw">
    <mxGraphModel dx="2044" dy="1166" grid="1" gridSize="1.1810999999999998" guides="1" tooltips="1" connect="1" arrows="1" fold="1" page="1" pageScale="1" pageWidth="800" pageHeight="400" math="0" shadow="0">
      <root>
        <mxCell id="m-3qZWNS83YrwCid4DwD-0" />
        <mxCell id="m-3qZWNS83YrwCid4DwD-1" parent="m-3qZWNS83YrwCid4DwD-0" />
        <mxCell id="2YcoB3UuAvKZ39fSO3fr-0" value="" style="group;fontSize=8;fillColor=default;" vertex="1" connectable="0" parent="m-3qZWNS83YrwCid4DwD-1">
          <mxGeometry width="660" height="290" as="geometry" />
        </mxCell>
        <mxCell id="2YcoB3UuAvKZ39fSO3fr-1" value="" style="rounded=1;whiteSpace=wrap;html=1;arcSize=6;fillColor=none;fontSize=11;" vertex="1" parent="2YcoB3UuAvKZ39fSO3fr-0">
          <mxGeometry width="660" height="290" as="geometry" />
        </mxCell>
        <mxCell id="2YcoB3UuAvKZ39fSO3fr-2" value="" style="rounded=0;whiteSpace=wrap;html=1;fontSize=11;" vertex="1" parent="2YcoB3UuAvKZ39fSO3fr-0">
          <mxGeometry x="138.38709677419354" y="34.8" width="330" height="208.79999999999998" as="geometry" />
        </mxCell>
        <mxCell id="2YcoB3UuAvKZ39fSO3fr-3" value="" style="ellipse;whiteSpace=wrap;html=1;aspect=fixed;fontSize=11;" vertex="1" parent="2YcoB3UuAvKZ39fSO3fr-0">
          <mxGeometry x="521.6129032258065" y="174" width="85.16129032258064" height="85.16129032258064" as="geometry" />
        </mxCell>
        <mxCell id="2YcoB3UuAvKZ39fSO3fr-4" value="" style="group;fontSize=11;" vertex="1" connectable="0" parent="2YcoB3UuAvKZ39fSO3fr-0">
          <mxGeometry x="17.032258064516128" y="141.51999999999998" width="31.93548387096774" height="34.8" as="geometry" />
        </mxCell>
        <mxCell id="2YcoB3UuAvKZ39fSO3fr-5" value="" style="ellipse;whiteSpace=wrap;html=1;aspect=fixed;fontSize=11;" vertex="1" parent="2YcoB3UuAvKZ39fSO3fr-4">
          <mxGeometry width="31.93548387096774" height="31.93548387096774" as="geometry" />
        </mxCell>
        <mxCell id="2YcoB3UuAvKZ39fSO3fr-6" value="" style="ellipse;whiteSpace=wrap;html=1;aspect=fixed;fontSize=11;" vertex="1" parent="2YcoB3UuAvKZ39fSO3fr-4">
          <mxGeometry x="5.32258064516129" y="5.8" width="21.29032258064516" height="21.29032258064516" as="geometry" />
        </mxCell>
        <mxCell id="2YcoB3UuAvKZ39fSO3fr-7" value="" style="group;fontSize=11;" vertex="1" connectable="0" parent="2YcoB3UuAvKZ39fSO3fr-0">
          <mxGeometry x="17.032258064516128" y="81.19999999999999" width="31.93548387096774" height="34.8" as="geometry" />
        </mxCell>
        <mxCell id="2YcoB3UuAvKZ39fSO3fr-8" value="" style="ellipse;whiteSpace=wrap;html=1;aspect=fixed;fontSize=11;" vertex="1" parent="2YcoB3UuAvKZ39fSO3fr-7">
          <mxGeometry width="31.93548387096774" height="31.93548387096774" as="geometry" />
        </mxCell>
        <mxCell id="2YcoB3UuAvKZ39fSO3fr-9" value="" style="ellipse;whiteSpace=wrap;html=1;aspect=fixed;fontSize=11;" vertex="1" parent="2YcoB3UuAvKZ39fSO3fr-7">
          <mxGeometry x="5.32258064516129" y="5.8" width="21.29032258064516" height="21.29032258064516" as="geometry" />
        </mxCell>
        <mxCell id="2YcoB3UuAvKZ39fSO3fr-10" value="" style="ellipse;whiteSpace=wrap;html=1;aspect=fixed;fontSize=11;" vertex="1" parent="2YcoB3UuAvKZ39fSO3fr-0">
          <mxGeometry x="27.677419354838708" y="243.6" width="10.64516129032258" height="10.64516129032258" as="geometry" />
        </mxCell>
        <mxCell id="2YcoB3UuAvKZ39fSO3fr-11" value="" style="ellipse;whiteSpace=wrap;html=1;aspect=fixed;fontSize=11;" vertex="1" parent="2YcoB3UuAvKZ39fSO3fr-0">
          <mxGeometry x="27.677419354838708" y="205.32" width="10.64516129032258" height="10.64516129032258" as="geometry" />
        </mxCell>
        <mxCell id="2YcoB3UuAvKZ39fSO3fr-12" value="" style="ellipse;whiteSpace=wrap;html=1;aspect=fixed;fontSize=11;" vertex="1" parent="2YcoB3UuAvKZ39fSO3fr-0">
          <mxGeometry x="78.77419354838709" y="205.32" width="10.64516129032258" height="10.64516129032258" as="geometry" />
        </mxCell>
        <mxCell id="2YcoB3UuAvKZ39fSO3fr-13" value="" style="rounded=0;whiteSpace=wrap;html=1;fontSize=11;" vertex="1" parent="2YcoB3UuAvKZ39fSO3fr-0">
          <mxGeometry x="73.45161290322581" y="243.6" width="21.29032258064516" height="11.6" as="geometry" />
        </mxCell>
        <mxCell id="2YcoB3UuAvKZ39fSO3fr-14" value="&lt;font style=&quot;font-size: 8px;&quot;&gt;Mic&lt;/font&gt;" style="text;html=1;strokeColor=none;fillColor=none;align=center;verticalAlign=middle;whiteSpace=wrap;rounded=0;fontSize=8;" vertex="1" parent="2YcoB3UuAvKZ39fSO3fr-0">
          <mxGeometry x="17.032258064516128" y="255.2" width="31.93548387096774" height="11.6" as="geometry" />
        </mxCell>
        <mxCell id="2YcoB3UuAvKZ39fSO3fr-15" value="&lt;font style=&quot;font-size: 8px;&quot;&gt;Headphone&lt;/font&gt;" style="text;html=1;strokeColor=none;fillColor=none;align=center;verticalAlign=middle;whiteSpace=wrap;rounded=0;fontSize=8;" vertex="1" parent="2YcoB3UuAvKZ39fSO3fr-0">
          <mxGeometry x="17.032258064516128" y="216.92" width="31.93548387096774" height="11.6" as="geometry" />
        </mxCell>
        <mxCell id="2YcoB3UuAvKZ39fSO3fr-16" value="&lt;font style=&quot;font-size: 8px;&quot;&gt;CW Key&lt;/font&gt;" style="text;html=1;strokeColor=none;fillColor=none;align=center;verticalAlign=middle;whiteSpace=wrap;rounded=0;fontSize=8;" vertex="1" parent="2YcoB3UuAvKZ39fSO3fr-0">
          <mxGeometry x="59.61290322580645" y="216.92" width="48.96774193548387" height="11.6" as="geometry" />
        </mxCell>
        <mxCell id="2YcoB3UuAvKZ39fSO3fr-17" value="&lt;font style=&quot;font-size: 8px;&quot;&gt;USB&lt;/font&gt;" style="text;html=1;strokeColor=none;fillColor=none;align=center;verticalAlign=middle;whiteSpace=wrap;rounded=0;fontSize=8;" vertex="1" parent="2YcoB3UuAvKZ39fSO3fr-0">
          <mxGeometry x="68.12903225806451" y="255.2" width="31.93548387096774" height="11.6" as="geometry" />
        </mxCell>
        <mxCell id="2YcoB3UuAvKZ39fSO3fr-18" value="" style="group;fontSize=11;" vertex="1" connectable="0" parent="2YcoB3UuAvKZ39fSO3fr-0">
          <mxGeometry x="611.0322580645161" y="29.439999999999998" width="31.93548387096774" height="34.8" as="geometry" />
        </mxCell>
        <mxCell id="2YcoB3UuAvKZ39fSO3fr-19" value="" style="ellipse;whiteSpace=wrap;html=1;aspect=fixed;fontSize=11;" vertex="1" parent="2YcoB3UuAvKZ39fSO3fr-18">
          <mxGeometry width="31.93548387096774" height="31.93548387096774" as="geometry" />
        </mxCell>
        <mxCell id="2YcoB3UuAvKZ39fSO3fr-20" value="" style="ellipse;whiteSpace=wrap;html=1;aspect=fixed;fontSize=11;" vertex="1" parent="2YcoB3UuAvKZ39fSO3fr-18">
          <mxGeometry x="5.32258064516129" y="5.8" width="21.29032258064516" height="21.29032258064516" as="geometry" />
        </mxCell>
        <mxCell id="2YcoB3UuAvKZ39fSO3fr-21" value="" style="group;fontSize=11;" vertex="1" connectable="0" parent="2YcoB3UuAvKZ39fSO3fr-0">
          <mxGeometry x="611.0322580645161" y="104.39999999999999" width="31.93548387096774" height="34.8" as="geometry" />
        </mxCell>
        <mxCell id="2YcoB3UuAvKZ39fSO3fr-22" value="" style="ellipse;whiteSpace=wrap;html=1;aspect=fixed;fontSize=11;" vertex="1" parent="2YcoB3UuAvKZ39fSO3fr-21">
          <mxGeometry width="31.93548387096774" height="31.93548387096774" as="geometry" />
        </mxCell>
        <mxCell id="2YcoB3UuAvKZ39fSO3fr-23" value="" style="ellipse;whiteSpace=wrap;html=1;aspect=fixed;fontSize=11;" vertex="1" parent="2YcoB3UuAvKZ39fSO3fr-21">
          <mxGeometry x="5.32258064516129" y="5.8" width="21.29032258064516" height="21.29032258064516" as="geometry" />
        </mxCell>
        <mxCell id="2YcoB3UuAvKZ39fSO3fr-24" value="" style="rounded=0;whiteSpace=wrap;html=1;fillColor=#e51400;fontColor=#ffffff;strokeColor=none;fontSize=11;" vertex="1" parent="2YcoB3UuAvKZ39fSO3fr-0">
          <mxGeometry x="38.32258064516129" y="23.2" width="21.29032258064516" height="11.6" as="geometry" />
        </mxCell>
        <mxCell id="2YcoB3UuAvKZ39fSO3fr-25" value="" style="rounded=0;whiteSpace=wrap;html=1;fillColor=#999999;fontColor=#ffffff;strokeColor=none;fontSize=11;" vertex="1" parent="2YcoB3UuAvKZ39fSO3fr-0">
          <mxGeometry x="73.45161290322581" y="92.8" width="21.29032258064516" height="11.6" as="geometry" />
        </mxCell>
        <mxCell id="2YcoB3UuAvKZ39fSO3fr-26" value="" style="rounded=0;whiteSpace=wrap;html=1;fillColor=#999999;fontColor=#ffffff;strokeColor=none;fontSize=11;" vertex="1" parent="2YcoB3UuAvKZ39fSO3fr-0">
          <mxGeometry x="73.45161290322581" y="120.6" width="21.29032258064516" height="11.6" as="geometry" />
        </mxCell>
        <mxCell id="2YcoB3UuAvKZ39fSO3fr-27" value="" style="rounded=0;whiteSpace=wrap;html=1;fillColor=#999999;fontColor=#ffffff;strokeColor=none;fontSize=11;" vertex="1" parent="2YcoB3UuAvKZ39fSO3fr-0">
          <mxGeometry x="521.6129032258065" y="266.79999999999995" width="21.29032258064516" height="11.6" as="geometry" />
        </mxCell>
        <mxCell id="2YcoB3UuAvKZ39fSO3fr-28" value="" style="rounded=0;whiteSpace=wrap;html=1;fillColor=#999999;fontColor=#ffffff;strokeColor=none;fontSize=11;" vertex="1" parent="2YcoB3UuAvKZ39fSO3fr-0">
          <mxGeometry x="600.3870967741935" y="266.79999999999995" width="21.29032258064516" height="11.6" as="geometry" />
        </mxCell>
        <mxCell id="2YcoB3UuAvKZ39fSO3fr-29" value="" style="rounded=0;whiteSpace=wrap;html=1;fillColor=#999999;fontColor=#ffffff;strokeColor=none;fontSize=8;" vertex="1" parent="2YcoB3UuAvKZ39fSO3fr-0">
          <mxGeometry x="528" y="11.6" width="21.29032258064516" height="11.6" as="geometry" />
        </mxCell>
        <mxCell id="2YcoB3UuAvKZ39fSO3fr-30" value="" style="rounded=0;whiteSpace=wrap;html=1;fillColor=#999999;fontColor=#ffffff;strokeColor=none;fontSize=8;" vertex="1" parent="2YcoB3UuAvKZ39fSO3fr-0">
          <mxGeometry x="553.5483870967741" y="11.6" width="21.29032258064516" height="11.6" as="geometry" />
        </mxCell>
        <mxCell id="2YcoB3UuAvKZ39fSO3fr-31" value="" style="rounded=0;whiteSpace=wrap;html=1;fillColor=#999999;fontColor=#ffffff;strokeColor=none;fontSize=8;" vertex="1" parent="2YcoB3UuAvKZ39fSO3fr-0">
          <mxGeometry x="579.0967741935483" y="11.6" width="21.29032258064516" height="11.6" as="geometry" />
        </mxCell>
        <mxCell id="2YcoB3UuAvKZ39fSO3fr-32" value="" style="rounded=0;whiteSpace=wrap;html=1;fillColor=#999999;fontColor=#ffffff;strokeColor=none;fontSize=8;" vertex="1" parent="2YcoB3UuAvKZ39fSO3fr-0">
          <mxGeometry x="528" y="46.4" width="21.29032258064516" height="11.6" as="geometry" />
        </mxCell>
        <mxCell id="2YcoB3UuAvKZ39fSO3fr-33" value="" style="rounded=0;whiteSpace=wrap;html=1;fillColor=#999999;fontColor=#ffffff;strokeColor=none;fontSize=8;" vertex="1" parent="2YcoB3UuAvKZ39fSO3fr-0">
          <mxGeometry x="553.5483870967741" y="46.4" width="21.29032258064516" height="11.6" as="geometry" />
        </mxCell>
        <mxCell id="2YcoB3UuAvKZ39fSO3fr-34" value="" style="rounded=0;whiteSpace=wrap;html=1;fillColor=#999999;fontColor=#ffffff;strokeColor=none;fontSize=8;" vertex="1" parent="2YcoB3UuAvKZ39fSO3fr-0">
          <mxGeometry x="579.0967741935483" y="46.4" width="21.29032258064516" height="11.6" as="geometry" />
        </mxCell>
        <mxCell id="2YcoB3UuAvKZ39fSO3fr-35" value="" style="rounded=0;whiteSpace=wrap;html=1;fillColor=#999999;fontColor=#ffffff;strokeColor=none;fontSize=8;" vertex="1" parent="2YcoB3UuAvKZ39fSO3fr-0">
          <mxGeometry x="528" y="81.19999999999999" width="21.29032258064516" height="11.6" as="geometry" />
        </mxCell>
        <mxCell id="2YcoB3UuAvKZ39fSO3fr-36" value="" style="rounded=0;whiteSpace=wrap;html=1;fillColor=#999999;fontColor=#ffffff;strokeColor=none;fontSize=8;" vertex="1" parent="2YcoB3UuAvKZ39fSO3fr-0">
          <mxGeometry x="553.5483870967741" y="81.19999999999999" width="21.29032258064516" height="11.6" as="geometry" />
        </mxCell>
        <mxCell id="2YcoB3UuAvKZ39fSO3fr-37" value="" style="rounded=0;whiteSpace=wrap;html=1;fillColor=#999999;fontColor=#ffffff;strokeColor=none;fontSize=8;" vertex="1" parent="2YcoB3UuAvKZ39fSO3fr-0">
          <mxGeometry x="579.0967741935483" y="81.19999999999999" width="21.29032258064516" height="11.6" as="geometry" />
        </mxCell>
        <mxCell id="2YcoB3UuAvKZ39fSO3fr-38" value="" style="rounded=0;whiteSpace=wrap;html=1;fillColor=#999999;fontColor=#ffffff;strokeColor=none;fontSize=8;" vertex="1" parent="2YcoB3UuAvKZ39fSO3fr-0">
          <mxGeometry x="528" y="115.99999999999999" width="21.29032258064516" height="11.6" as="geometry" />
        </mxCell>
        <mxCell id="2YcoB3UuAvKZ39fSO3fr-39" value="" style="rounded=0;whiteSpace=wrap;html=1;fillColor=#999999;fontColor=#ffffff;strokeColor=none;fontSize=8;" vertex="1" parent="2YcoB3UuAvKZ39fSO3fr-0">
          <mxGeometry x="553.5483870967741" y="115.99999999999999" width="21.29032258064516" height="11.6" as="geometry" />
        </mxCell>
        <mxCell id="2YcoB3UuAvKZ39fSO3fr-40" value="" style="rounded=0;whiteSpace=wrap;html=1;fillColor=#999999;fontColor=#ffffff;strokeColor=none;fontSize=8;" vertex="1" parent="2YcoB3UuAvKZ39fSO3fr-0">
          <mxGeometry x="579.0967741935483" y="115.99999999999999" width="21.29032258064516" height="11.6" as="geometry" />
        </mxCell>
        <mxCell id="2YcoB3UuAvKZ39fSO3fr-41" value="&lt;font style=&quot;font-size: 8px;&quot;&gt;Power&lt;/font&gt;" style="text;html=1;strokeColor=none;fillColor=none;align=center;verticalAlign=middle;whiteSpace=wrap;rounded=0;fontSize=8;" vertex="1" parent="2YcoB3UuAvKZ39fSO3fr-0">
          <mxGeometry x="33" y="32.48" width="31.93548387096774" height="11.6" as="geometry" />
        </mxCell>
        <mxCell id="2YcoB3UuAvKZ39fSO3fr-42" value="&lt;font style=&quot;font-size: 8px;&quot;&gt;MOX&lt;/font&gt;" style="text;html=1;strokeColor=none;fillColor=none;align=center;verticalAlign=middle;whiteSpace=wrap;rounded=0;fontSize=8;" vertex="1" parent="2YcoB3UuAvKZ39fSO3fr-0">
          <mxGeometry x="68.12903225806451" y="104.39999999999999" width="31.93548387096774" height="11.6" as="geometry" />
        </mxCell>
        <mxCell id="2YcoB3UuAvKZ39fSO3fr-43" value="&lt;font style=&quot;font-size: 8px;&quot;&gt;Mode+&lt;/font&gt;" style="text;html=1;strokeColor=none;fillColor=none;align=center;verticalAlign=middle;whiteSpace=wrap;rounded=0;fontSize=8;" vertex="1" parent="2YcoB3UuAvKZ39fSO3fr-0">
          <mxGeometry x="518.1612903225806" y="23.56" width="39.387096774193544" height="11.6" as="geometry" />
        </mxCell>
        <mxCell id="2YcoB3UuAvKZ39fSO3fr-44" value="&lt;font style=&quot;font-size: 8px;&quot;&gt;Mode-&lt;/font&gt;" style="text;html=1;strokeColor=none;fillColor=none;align=center;verticalAlign=middle;whiteSpace=wrap;rounded=0;fontSize=8;" vertex="1" parent="2YcoB3UuAvKZ39fSO3fr-0">
          <mxGeometry x="518.1612903225806" y="56.04" width="39.387096774193544" height="11.6" as="geometry" />
        </mxCell>
        <mxCell id="2YcoB3UuAvKZ39fSO3fr-45" value="&lt;font style=&quot;font-size: 8px;&quot;&gt;Fil +&lt;/font&gt;" style="text;html=1;strokeColor=none;fillColor=none;align=center;verticalAlign=middle;whiteSpace=wrap;rounded=0;fontSize=8;" vertex="1" parent="2YcoB3UuAvKZ39fSO3fr-0">
          <mxGeometry x="548.5" y="23.56" width="39.387096774193544" height="11.6" as="geometry" />
        </mxCell>
        <mxCell id="2YcoB3UuAvKZ39fSO3fr-46" value="&lt;font style=&quot;font-size: 8px;&quot;&gt;Fil -&lt;/font&gt;" style="text;html=1;strokeColor=none;fillColor=none;align=center;verticalAlign=middle;whiteSpace=wrap;rounded=0;fontSize=8;" vertex="1" parent="2YcoB3UuAvKZ39fSO3fr-0">
          <mxGeometry x="546.9032258064516" y="56.04" width="39.387096774193544" height="11.6" as="geometry" />
        </mxCell>
        <mxCell id="2YcoB3UuAvKZ39fSO3fr-47" value="&lt;font style=&quot;font-size: 8px;&quot;&gt;Band+&lt;/font&gt;" style="text;html=1;strokeColor=none;fillColor=none;align=center;verticalAlign=middle;whiteSpace=wrap;rounded=0;fontSize=8;" vertex="1" parent="2YcoB3UuAvKZ39fSO3fr-0">
          <mxGeometry x="573.516129032258" y="23.56" width="39.387096774193544" height="11.6" as="geometry" />
        </mxCell>
        <mxCell id="2YcoB3UuAvKZ39fSO3fr-48" value="&lt;font style=&quot;font-size: 8px;&quot;&gt;Band-&lt;/font&gt;" style="text;html=1;strokeColor=none;fillColor=none;align=center;verticalAlign=middle;whiteSpace=wrap;rounded=0;fontSize=8;" vertex="1" parent="2YcoB3UuAvKZ39fSO3fr-0">
          <mxGeometry x="573.516129032258" y="56.04" width="39.387096774193544" height="11.6" as="geometry" />
        </mxCell>
        <mxCell id="2YcoB3UuAvKZ39fSO3fr-49" value="&lt;font style=&quot;font-size: 8px;&quot;&gt;A&amp;gt;B&lt;/font&gt;" style="text;html=1;strokeColor=none;fillColor=none;align=center;verticalAlign=middle;whiteSpace=wrap;rounded=0;fontSize=8;" vertex="1" parent="2YcoB3UuAvKZ39fSO3fr-0">
          <mxGeometry x="521.3548387096774" y="93.16" width="39.387096774193544" height="11.6" as="geometry" />
        </mxCell>
        <mxCell id="2YcoB3UuAvKZ39fSO3fr-50" value="&lt;font style=&quot;font-size: 8px;&quot;&gt;B&amp;gt;A&lt;/font&gt;" style="text;html=1;strokeColor=none;fillColor=none;align=center;verticalAlign=middle;whiteSpace=wrap;rounded=0;fontSize=8;" vertex="1" parent="2YcoB3UuAvKZ39fSO3fr-0">
          <mxGeometry x="549.0322580645161" y="93.16" width="39.387096774193544" height="11.6" as="geometry" />
        </mxCell>
        <mxCell id="2YcoB3UuAvKZ39fSO3fr-51" value="&lt;font style=&quot;font-size: 8px;&quot;&gt;Split&lt;/font&gt;" style="text;html=1;strokeColor=none;fillColor=none;align=center;verticalAlign=middle;whiteSpace=wrap;rounded=0;fontSize=8;" vertex="1" parent="2YcoB3UuAvKZ39fSO3fr-0">
          <mxGeometry x="571.3870967741935" y="93.16" width="39.387096774193544" height="11.6" as="geometry" />
        </mxCell>
        <mxCell id="2YcoB3UuAvKZ39fSO3fr-52" value="&lt;font style=&quot;font-size: 8px;&quot;&gt;FCN&lt;/font&gt;" style="text;html=1;strokeColor=none;fillColor=none;align=center;verticalAlign=middle;whiteSpace=wrap;rounded=0;fontSize=8;" vertex="1" parent="2YcoB3UuAvKZ39fSO3fr-0">
          <mxGeometry x="521.3548387096774" y="127.96" width="39.387096774193544" height="11.6" as="geometry" />
        </mxCell>
        <mxCell id="2YcoB3UuAvKZ39fSO3fr-53" value="&lt;font style=&quot;font-size: 8px;&quot;&gt;RIT&lt;/font&gt;" style="text;html=1;strokeColor=none;fillColor=none;align=center;verticalAlign=middle;whiteSpace=wrap;rounded=0;fontSize=8;" vertex="1" parent="2YcoB3UuAvKZ39fSO3fr-0">
          <mxGeometry x="546.9032258064516" y="127.96" width="39.387096774193544" height="11.6" as="geometry" />
        </mxCell>
        <mxCell id="2YcoB3UuAvKZ39fSO3fr-54" value="&lt;font style=&quot;font-size: 8px;&quot;&gt;XIT&lt;/font&gt;" style="text;html=1;strokeColor=none;fillColor=none;align=center;verticalAlign=middle;whiteSpace=wrap;rounded=0;fontSize=8;" vertex="1" parent="2YcoB3UuAvKZ39fSO3fr-0">
          <mxGeometry x="571.3870967741935" y="127.96" width="39.387096774193544" height="11.6" as="geometry" />
        </mxCell>
        <mxCell id="2YcoB3UuAvKZ39fSO3fr-55" value="&lt;font style=&quot;font-size: 8px;&quot;&gt;CTUNE&lt;/font&gt;" style="text;html=1;strokeColor=none;fillColor=none;align=center;verticalAlign=middle;whiteSpace=wrap;rounded=0;fontSize=8;" vertex="1" parent="2YcoB3UuAvKZ39fSO3fr-0">
          <mxGeometry x="512.5622580645161" y="279.99999999999994" width="39.387096774193544" height="4.64" as="geometry" />
        </mxCell>
        <mxCell id="2YcoB3UuAvKZ39fSO3fr-56" value="&lt;font style=&quot;font-size: 8px;&quot;&gt;LOCK&lt;/font&gt;" style="text;html=1;strokeColor=none;fillColor=none;align=center;verticalAlign=middle;whiteSpace=wrap;rounded=0;fontSize=8;" vertex="1" parent="2YcoB3UuAvKZ39fSO3fr-0">
          <mxGeometry x="591.333870967742" y="279.99999999999994" width="39.387096774193544" height="4.64" as="geometry" />
        </mxCell>
        <mxCell id="2YcoB3UuAvKZ39fSO3fr-57" value="&lt;font style=&quot;font-size: 8px;&quot;&gt;2Tone / Tune&lt;/font&gt;" style="text;html=1;strokeColor=none;fillColor=none;align=center;verticalAlign=middle;whiteSpace=wrap;rounded=0;fontSize=8;" vertex="1" parent="2YcoB3UuAvKZ39fSO3fr-0">
          <mxGeometry x="59.05" y="132.4" width="50.79" height="11.6" as="geometry" />
        </mxCell>
        <mxCell id="2YcoB3UuAvKZ39fSO3fr-58" value="" style="ellipse;whiteSpace=wrap;html=1;aspect=fixed;strokeColor=none;fillColor=#FF3333;fontSize=11;" vertex="1" parent="2YcoB3UuAvKZ39fSO3fr-0">
          <mxGeometry x="63.87096774193548" y="25.52" width="4.258064516129032" height="4.258064516129032" as="geometry" />
        </mxCell>
        <mxCell id="2YcoB3UuAvKZ39fSO3fr-59" value="&lt;font style=&quot;font-size: 8px;&quot;&gt;MIC/DRIVE&lt;/font&gt;" style="text;html=1;strokeColor=none;fillColor=none;align=center;verticalAlign=middle;whiteSpace=wrap;rounded=0;fontSize=8;" vertex="1" parent="2YcoB3UuAvKZ39fSO3fr-0">
          <mxGeometry x="5.950000000000001" y="67.64" width="54.1" height="11.6" as="geometry" />
        </mxCell>
        <mxCell id="2YcoB3UuAvKZ39fSO3fr-60" value="&lt;font style=&quot;font-size: 8px;&quot;&gt;RX AF/AGC&lt;/font&gt;" style="text;html=1;strokeColor=none;fillColor=none;align=center;verticalAlign=middle;whiteSpace=wrap;rounded=0;fontSize=8;" vertex="1" parent="2YcoB3UuAvKZ39fSO3fr-0">
          <mxGeometry x="5" y="124.96" width="52.48" height="11.6" as="geometry" />
        </mxCell>
        <mxCell id="2YcoB3UuAvKZ39fSO3fr-61" value="&lt;font style=&quot;font-size: 8px;&quot;&gt;Multi 1&lt;/font&gt;" style="text;html=1;strokeColor=none;fillColor=none;align=center;verticalAlign=middle;whiteSpace=wrap;rounded=0;fontSize=8;" vertex="1" parent="2YcoB3UuAvKZ39fSO3fr-0">
          <mxGeometry x="602.516129032258" y="9.559999999999999" width="48.96774193548387" height="11.6" as="geometry" />
        </mxCell>
        <mxCell id="2YcoB3UuAvKZ39fSO3fr-62" value="Multi 2" style="text;html=1;strokeColor=none;fillColor=none;align=center;verticalAlign=middle;whiteSpace=wrap;rounded=0;fontSize=8;" vertex="1" parent="2YcoB3UuAvKZ39fSO3fr-0">
          <mxGeometry x="602.516129032258" y="92.19999999999999" width="48.96774193548387" height="11.6" as="geometry" />
        </mxCell>
        <mxCell id="2YcoB3UuAvKZ39fSO3fr-63" value="&lt;font style=&quot;font-size: 8px;&quot;&gt;Band&lt;/font&gt;" style="text;html=1;strokeColor=none;fillColor=none;align=center;verticalAlign=middle;whiteSpace=wrap;rounded=0;fontSize=8;" vertex="1" parent="2YcoB3UuAvKZ39fSO3fr-0">
          <mxGeometry x="528" y="156.33" width="26.55" height="11.6" as="geometry" />
        </mxCell>
        <mxCell id="NvgIThNfDYdmVq7WQOqV-0" value="Enc 11,12 U/L" style="text;html=1;strokeColor=none;fillColor=none;align=center;verticalAlign=middle;whiteSpace=wrap;rounded=0;fontColor=#FF3333;fontSize=10;" vertex="1" parent="m-3qZWNS83YrwCid4DwD-1">
          <mxGeometry x="3.87" y="103.8" width="69.36" height="30" as="geometry" />
        </mxCell>
        <mxCell id="NvgIThNfDYdmVq7WQOqV-1" value="Enc 9,10 U/L" style="text;html=1;strokeColor=none;fillColor=none;align=center;verticalAlign=middle;whiteSpace=wrap;rounded=0;fontColor=#FF3333;fontSize=10;" vertex="1" parent="m-3qZWNS83YrwCid4DwD-1">
          <mxGeometry x="595.27" y="130" width="65.12" height="30" as="geometry" />
        </mxCell>
        <mxCell id="NvgIThNfDYdmVq7WQOqV-2" value="Enc 5, 6 U/L" style="text;html=1;strokeColor=none;fillColor=none;align=center;verticalAlign=middle;whiteSpace=wrap;rounded=0;fontColor=#FF3333;fontSize=10;" vertex="1" parent="m-3qZWNS83YrwCid4DwD-1">
          <mxGeometry x="597.6411" y="54.33109999999999" width="65.12" height="30" as="geometry" />
        </mxCell>
        <mxCell id="NvgIThNfDYdmVq7WQOqV-3" value="Enc 1,2 U/L" style="text;html=1;strokeColor=none;fillColor=none;align=center;verticalAlign=middle;whiteSpace=wrap;rounded=0;fontColor=#FF3333;fontSize=10;" vertex="1" parent="m-3qZWNS83YrwCid4DwD-1">
          <mxGeometry x="2.3600000000000136" y="164.8" width="60" height="30" as="geometry" />
        </mxCell>
      </root>
    </mxGraphModel>
  </diagram>
  <diagram name="Original G2 Front Panel" id="XwOV3LgbLRa5jGoSRfpK">
    <mxGraphModel dx="2044" dy="1166" grid="1" gridSize="5" guides="1" tooltips="1" connect="1" arrows="1" fold="1" page="1" pageScale="1" pageWidth="800" pageHeight="400" math="0" shadow="0">
      <root>
        <mxCell id="0" />
        <mxCell id="1" parent="0" />
        <mxCell id="K0OsWoiAlUttfvYLpMJz-1" value="" style="group;fontSize=11;fillColor=default;" parent="1" vertex="1" connectable="0">
          <mxGeometry width="660" height="290" as="geometry" />
        </mxCell>
        <mxCell id="DcRQQ9y7dEn5vMJfV4_L-1" value="" style="rounded=1;whiteSpace=wrap;html=1;arcSize=6;fillColor=none;fontSize=11;" parent="K0OsWoiAlUttfvYLpMJz-1" vertex="1">
          <mxGeometry width="660" height="290" as="geometry" />
        </mxCell>
        <mxCell id="DcRQQ9y7dEn5vMJfV4_L-2" value="" style="rounded=0;whiteSpace=wrap;html=1;fontSize=11;" parent="K0OsWoiAlUttfvYLpMJz-1" vertex="1">
          <mxGeometry x="138.38709677419354" y="34.8" width="330" height="208.79999999999998" as="geometry" />
        </mxCell>
        <mxCell id="DcRQQ9y7dEn5vMJfV4_L-3" value="" style="ellipse;whiteSpace=wrap;html=1;aspect=fixed;fontSize=11;" parent="K0OsWoiAlUttfvYLpMJz-1" vertex="1">
          <mxGeometry x="521.6129032258065" y="174" width="85.16129032258064" height="85.16129032258064" as="geometry" />
        </mxCell>
        <mxCell id="DcRQQ9y7dEn5vMJfV4_L-6" value="" style="group;fontSize=11;" parent="K0OsWoiAlUttfvYLpMJz-1" vertex="1" connectable="0">
          <mxGeometry x="17.032258064516128" y="141.51999999999998" width="31.93548387096774" height="34.8" as="geometry" />
        </mxCell>
        <mxCell id="DcRQQ9y7dEn5vMJfV4_L-4" value="" style="ellipse;whiteSpace=wrap;html=1;aspect=fixed;fontSize=11;" parent="DcRQQ9y7dEn5vMJfV4_L-6" vertex="1">
          <mxGeometry width="31.93548387096774" height="31.93548387096774" as="geometry" />
        </mxCell>
        <mxCell id="DcRQQ9y7dEn5vMJfV4_L-5" value="" style="ellipse;whiteSpace=wrap;html=1;aspect=fixed;fontSize=11;" parent="DcRQQ9y7dEn5vMJfV4_L-6" vertex="1">
          <mxGeometry x="5.32258064516129" y="5.8" width="21.29032258064516" height="21.29032258064516" as="geometry" />
        </mxCell>
        <mxCell id="DcRQQ9y7dEn5vMJfV4_L-8" value="" style="group;fontSize=11;" parent="K0OsWoiAlUttfvYLpMJz-1" vertex="1" connectable="0">
          <mxGeometry x="17.032258064516128" y="81.19999999999999" width="31.93548387096774" height="34.8" as="geometry" />
        </mxCell>
        <mxCell id="DcRQQ9y7dEn5vMJfV4_L-9" value="" style="ellipse;whiteSpace=wrap;html=1;aspect=fixed;fontSize=11;" parent="DcRQQ9y7dEn5vMJfV4_L-8" vertex="1">
          <mxGeometry width="31.93548387096774" height="31.93548387096774" as="geometry" />
        </mxCell>
        <mxCell id="DcRQQ9y7dEn5vMJfV4_L-10" value="" style="ellipse;whiteSpace=wrap;html=1;aspect=fixed;fontSize=11;" parent="DcRQQ9y7dEn5vMJfV4_L-8" vertex="1">
          <mxGeometry x="5.32258064516129" y="5.8" width="21.29032258064516" height="21.29032258064516" as="geometry" />
        </mxCell>
        <mxCell id="DcRQQ9y7dEn5vMJfV4_L-11" value="" style="ellipse;whiteSpace=wrap;html=1;aspect=fixed;fontSize=11;" parent="K0OsWoiAlUttfvYLpMJz-1" vertex="1">
          <mxGeometry x="27.677419354838708" y="243.6" width="10.64516129032258" height="10.64516129032258" as="geometry" />
        </mxCell>
        <mxCell id="DcRQQ9y7dEn5vMJfV4_L-12" value="" style="ellipse;whiteSpace=wrap;html=1;aspect=fixed;fontSize=11;" parent="K0OsWoiAlUttfvYLpMJz-1" vertex="1">
          <mxGeometry x="27.677419354838708" y="205.32" width="10.64516129032258" height="10.64516129032258" as="geometry" />
        </mxCell>
        <mxCell id="DcRQQ9y7dEn5vMJfV4_L-13" value="" style="ellipse;whiteSpace=wrap;html=1;aspect=fixed;fontSize=11;" parent="K0OsWoiAlUttfvYLpMJz-1" vertex="1">
          <mxGeometry x="78.77419354838709" y="205.32" width="10.64516129032258" height="10.64516129032258" as="geometry" />
        </mxCell>
        <mxCell id="DcRQQ9y7dEn5vMJfV4_L-14" value="" style="rounded=0;whiteSpace=wrap;html=1;fontSize=11;" parent="K0OsWoiAlUttfvYLpMJz-1" vertex="1">
          <mxGeometry x="73.45161290322581" y="243.6" width="21.29032258064516" height="11.6" as="geometry" />
        </mxCell>
        <mxCell id="DcRQQ9y7dEn5vMJfV4_L-15" value="&lt;font style=&quot;font-size: 8px;&quot;&gt;Mic&lt;/font&gt;" style="text;html=1;strokeColor=none;fillColor=none;align=center;verticalAlign=middle;whiteSpace=wrap;rounded=0;fontSize=8;" parent="K0OsWoiAlUttfvYLpMJz-1" vertex="1">
          <mxGeometry x="17.032258064516128" y="255.2" width="31.93548387096774" height="11.6" as="geometry" />
        </mxCell>
        <mxCell id="DcRQQ9y7dEn5vMJfV4_L-16" value="&lt;font style=&quot;font-size: 8px;&quot;&gt;Headphone&lt;/font&gt;" style="text;html=1;strokeColor=none;fillColor=none;align=center;verticalAlign=middle;whiteSpace=wrap;rounded=0;fontSize=8;" parent="K0OsWoiAlUttfvYLpMJz-1" vertex="1">
          <mxGeometry x="17.032258064516128" y="216.92" width="31.93548387096774" height="11.6" as="geometry" />
        </mxCell>
        <mxCell id="DcRQQ9y7dEn5vMJfV4_L-17" value="&lt;font style=&quot;font-size: 8px;&quot;&gt;CW Key&lt;/font&gt;" style="text;html=1;strokeColor=none;fillColor=none;align=center;verticalAlign=middle;whiteSpace=wrap;rounded=0;fontSize=8;" parent="K0OsWoiAlUttfvYLpMJz-1" vertex="1">
          <mxGeometry x="59.61290322580645" y="216.92" width="48.96774193548387" height="11.6" as="geometry" />
        </mxCell>
        <mxCell id="DcRQQ9y7dEn5vMJfV4_L-18" value="&lt;font style=&quot;font-size: 8px;&quot;&gt;USB&lt;/font&gt;" style="text;html=1;strokeColor=none;fillColor=none;align=center;verticalAlign=middle;whiteSpace=wrap;rounded=0;fontSize=8;" parent="K0OsWoiAlUttfvYLpMJz-1" vertex="1">
          <mxGeometry x="68.12903225806451" y="255.2" width="31.93548387096774" height="11.6" as="geometry" />
        </mxCell>
        <mxCell id="DcRQQ9y7dEn5vMJfV4_L-20" value="" style="group;fontSize=11;" parent="K0OsWoiAlUttfvYLpMJz-1" vertex="1" connectable="0">
          <mxGeometry x="611.0322580645161" y="39.44" width="31.93548387096774" height="34.8" as="geometry" />
        </mxCell>
        <mxCell id="DcRQQ9y7dEn5vMJfV4_L-21" value="" style="ellipse;whiteSpace=wrap;html=1;aspect=fixed;fontSize=11;" parent="DcRQQ9y7dEn5vMJfV4_L-20" vertex="1">
          <mxGeometry width="31.93548387096774" height="31.93548387096774" as="geometry" />
        </mxCell>
        <mxCell id="DcRQQ9y7dEn5vMJfV4_L-22" value="" style="ellipse;whiteSpace=wrap;html=1;aspect=fixed;fontSize=11;" parent="DcRQQ9y7dEn5vMJfV4_L-20" vertex="1">
          <mxGeometry x="5.32258064516129" y="5.8" width="21.29032258064516" height="21.29032258064516" as="geometry" />
        </mxCell>
        <mxCell id="DcRQQ9y7dEn5vMJfV4_L-23" value="" style="group;fontSize=11;" parent="K0OsWoiAlUttfvYLpMJz-1" vertex="1" connectable="0">
          <mxGeometry x="611.0322580645161" y="104.39999999999999" width="31.93548387096774" height="34.8" as="geometry" />
        </mxCell>
        <mxCell id="DcRQQ9y7dEn5vMJfV4_L-24" value="" style="ellipse;whiteSpace=wrap;html=1;aspect=fixed;fontSize=11;" parent="DcRQQ9y7dEn5vMJfV4_L-23" vertex="1">
          <mxGeometry width="31.93548387096774" height="31.93548387096774" as="geometry" />
        </mxCell>
        <mxCell id="DcRQQ9y7dEn5vMJfV4_L-25" value="" style="ellipse;whiteSpace=wrap;html=1;aspect=fixed;fontSize=11;" parent="DcRQQ9y7dEn5vMJfV4_L-23" vertex="1">
          <mxGeometry x="5.32258064516129" y="5.8" width="21.29032258064516" height="21.29032258064516" as="geometry" />
        </mxCell>
        <mxCell id="DcRQQ9y7dEn5vMJfV4_L-26" value="" style="rounded=0;whiteSpace=wrap;html=1;fillColor=#e51400;fontColor=#ffffff;strokeColor=none;fontSize=11;" parent="K0OsWoiAlUttfvYLpMJz-1" vertex="1">
          <mxGeometry x="38.32258064516129" y="23.2" width="21.29032258064516" height="11.6" as="geometry" />
        </mxCell>
        <mxCell id="DcRQQ9y7dEn5vMJfV4_L-27" value="" style="rounded=0;whiteSpace=wrap;html=1;fillColor=#999999;fontColor=#ffffff;strokeColor=none;fontSize=11;" parent="K0OsWoiAlUttfvYLpMJz-1" vertex="1">
          <mxGeometry x="73.45161290322581" y="92.8" width="21.29032258064516" height="11.6" as="geometry" />
        </mxCell>
        <mxCell id="DcRQQ9y7dEn5vMJfV4_L-28" value="" style="rounded=0;whiteSpace=wrap;html=1;fillColor=#999999;fontColor=#ffffff;strokeColor=none;fontSize=11;" parent="K0OsWoiAlUttfvYLpMJz-1" vertex="1">
          <mxGeometry x="73.45161290322581" y="127.6" width="21.29032258064516" height="11.6" as="geometry" />
        </mxCell>
        <mxCell id="DcRQQ9y7dEn5vMJfV4_L-29" value="" style="rounded=0;whiteSpace=wrap;html=1;fillColor=#999999;fontColor=#ffffff;strokeColor=none;fontSize=11;" parent="K0OsWoiAlUttfvYLpMJz-1" vertex="1">
          <mxGeometry x="521.6129032258065" y="266.79999999999995" width="21.29032258064516" height="11.6" as="geometry" />
        </mxCell>
        <mxCell id="DcRQQ9y7dEn5vMJfV4_L-30" value="" style="rounded=0;whiteSpace=wrap;html=1;fillColor=#999999;fontColor=#ffffff;strokeColor=none;fontSize=11;" parent="K0OsWoiAlUttfvYLpMJz-1" vertex="1">
          <mxGeometry x="600.3870967741935" y="266.79999999999995" width="21.29032258064516" height="11.6" as="geometry" />
        </mxCell>
        <mxCell id="DcRQQ9y7dEn5vMJfV4_L-31" value="" style="rounded=0;whiteSpace=wrap;html=1;fillColor=#999999;fontColor=#ffffff;strokeColor=none;fontSize=8;" parent="K0OsWoiAlUttfvYLpMJz-1" vertex="1">
          <mxGeometry x="528" y="11.6" width="21.29032258064516" height="11.6" as="geometry" />
        </mxCell>
        <mxCell id="DcRQQ9y7dEn5vMJfV4_L-32" value="" style="rounded=0;whiteSpace=wrap;html=1;fillColor=#999999;fontColor=#ffffff;strokeColor=none;fontSize=8;" parent="K0OsWoiAlUttfvYLpMJz-1" vertex="1">
          <mxGeometry x="553.5483870967741" y="11.6" width="21.29032258064516" height="11.6" as="geometry" />
        </mxCell>
        <mxCell id="DcRQQ9y7dEn5vMJfV4_L-33" value="" style="rounded=0;whiteSpace=wrap;html=1;fillColor=#999999;fontColor=#ffffff;strokeColor=none;fontSize=8;" parent="K0OsWoiAlUttfvYLpMJz-1" vertex="1">
          <mxGeometry x="579.0967741935483" y="11.6" width="21.29032258064516" height="11.6" as="geometry" />
        </mxCell>
        <mxCell id="DcRQQ9y7dEn5vMJfV4_L-34" value="" style="rounded=0;whiteSpace=wrap;html=1;fillColor=#999999;fontColor=#ffffff;strokeColor=none;fontSize=8;" parent="K0OsWoiAlUttfvYLpMJz-1" vertex="1">
          <mxGeometry x="528" y="46.4" width="21.29032258064516" height="11.6" as="geometry" />
        </mxCell>
        <mxCell id="DcRQQ9y7dEn5vMJfV4_L-35" value="" style="rounded=0;whiteSpace=wrap;html=1;fillColor=#999999;fontColor=#ffffff;strokeColor=none;fontSize=8;" parent="K0OsWoiAlUttfvYLpMJz-1" vertex="1">
          <mxGeometry x="553.5483870967741" y="46.4" width="21.29032258064516" height="11.6" as="geometry" />
        </mxCell>
        <mxCell id="DcRQQ9y7dEn5vMJfV4_L-36" value="" style="rounded=0;whiteSpace=wrap;html=1;fillColor=#999999;fontColor=#ffffff;strokeColor=none;fontSize=8;" parent="K0OsWoiAlUttfvYLpMJz-1" vertex="1">
          <mxGeometry x="579.0967741935483" y="46.4" width="21.29032258064516" height="11.6" as="geometry" />
        </mxCell>
        <mxCell id="DcRQQ9y7dEn5vMJfV4_L-37" value="" style="rounded=0;whiteSpace=wrap;html=1;fillColor=#999999;fontColor=#ffffff;strokeColor=none;fontSize=8;" parent="K0OsWoiAlUttfvYLpMJz-1" vertex="1">
          <mxGeometry x="528" y="81.19999999999999" width="21.29032258064516" height="11.6" as="geometry" />
        </mxCell>
        <mxCell id="DcRQQ9y7dEn5vMJfV4_L-38" value="" style="rounded=0;whiteSpace=wrap;html=1;fillColor=#999999;fontColor=#ffffff;strokeColor=none;fontSize=8;" parent="K0OsWoiAlUttfvYLpMJz-1" vertex="1">
          <mxGeometry x="553.5483870967741" y="81.19999999999999" width="21.29032258064516" height="11.6" as="geometry" />
        </mxCell>
        <mxCell id="DcRQQ9y7dEn5vMJfV4_L-39" value="" style="rounded=0;whiteSpace=wrap;html=1;fillColor=#999999;fontColor=#ffffff;strokeColor=none;fontSize=8;" parent="K0OsWoiAlUttfvYLpMJz-1" vertex="1">
          <mxGeometry x="579.0967741935483" y="81.19999999999999" width="21.29032258064516" height="11.6" as="geometry" />
        </mxCell>
        <mxCell id="DcRQQ9y7dEn5vMJfV4_L-40" value="" style="rounded=0;whiteSpace=wrap;html=1;fillColor=#999999;fontColor=#ffffff;strokeColor=none;fontSize=8;" parent="K0OsWoiAlUttfvYLpMJz-1" vertex="1">
          <mxGeometry x="528" y="115.99999999999999" width="21.29032258064516" height="11.6" as="geometry" />
        </mxCell>
        <mxCell id="DcRQQ9y7dEn5vMJfV4_L-41" value="" style="rounded=0;whiteSpace=wrap;html=1;fillColor=#999999;fontColor=#ffffff;strokeColor=none;fontSize=8;" parent="K0OsWoiAlUttfvYLpMJz-1" vertex="1">
          <mxGeometry x="553.5483870967741" y="115.99999999999999" width="21.29032258064516" height="11.6" as="geometry" />
        </mxCell>
        <mxCell id="DcRQQ9y7dEn5vMJfV4_L-42" value="" style="rounded=0;whiteSpace=wrap;html=1;fillColor=#999999;fontColor=#ffffff;strokeColor=none;fontSize=8;" parent="K0OsWoiAlUttfvYLpMJz-1" vertex="1">
          <mxGeometry x="579.0967741935483" y="115.99999999999999" width="21.29032258064516" height="11.6" as="geometry" />
        </mxCell>
        <mxCell id="DcRQQ9y7dEn5vMJfV4_L-43" value="&lt;font style=&quot;font-size: 8px;&quot;&gt;Power&lt;/font&gt;" style="text;html=1;strokeColor=none;fillColor=none;align=center;verticalAlign=middle;whiteSpace=wrap;rounded=0;fontSize=8;" parent="K0OsWoiAlUttfvYLpMJz-1" vertex="1">
          <mxGeometry x="33" y="32.48" width="31.93548387096774" height="11.6" as="geometry" />
        </mxCell>
        <mxCell id="DcRQQ9y7dEn5vMJfV4_L-44" value="&lt;font style=&quot;font-size: 8px;&quot;&gt;MOX&lt;/font&gt;" style="text;html=1;strokeColor=none;fillColor=none;align=center;verticalAlign=middle;whiteSpace=wrap;rounded=0;fontSize=8;" parent="K0OsWoiAlUttfvYLpMJz-1" vertex="1">
          <mxGeometry x="68.12903225806451" y="104.39999999999999" width="31.93548387096774" height="11.6" as="geometry" />
        </mxCell>
        <mxCell id="DcRQQ9y7dEn5vMJfV4_L-46" value="&lt;font style=&quot;font-size: 8px;&quot;&gt;Mode+&lt;/font&gt;" style="text;html=1;strokeColor=none;fillColor=none;align=center;verticalAlign=middle;whiteSpace=wrap;rounded=0;fontSize=8;" parent="K0OsWoiAlUttfvYLpMJz-1" vertex="1">
          <mxGeometry x="518.1612903225806" y="23.56" width="39.387096774193544" height="11.6" as="geometry" />
        </mxCell>
        <mxCell id="DcRQQ9y7dEn5vMJfV4_L-47" value="&lt;font style=&quot;font-size: 8px;&quot;&gt;Mode-&lt;/font&gt;" style="text;html=1;strokeColor=none;fillColor=none;align=center;verticalAlign=middle;whiteSpace=wrap;rounded=0;fontSize=8;" parent="K0OsWoiAlUttfvYLpMJz-1" vertex="1">
          <mxGeometry x="518.1612903225806" y="56.04" width="39.387096774193544" height="11.6" as="geometry" />
        </mxCell>
        <mxCell id="DcRQQ9y7dEn5vMJfV4_L-48" value="&lt;font style=&quot;font-size: 8px;&quot;&gt;Fil +&lt;/font&gt;" style="text;html=1;strokeColor=none;fillColor=none;align=center;verticalAlign=middle;whiteSpace=wrap;rounded=0;fontSize=8;" parent="K0OsWoiAlUttfvYLpMJz-1" vertex="1">
          <mxGeometry x="548.5" y="23.56" width="39.387096774193544" height="11.6" as="geometry" />
        </mxCell>
        <mxCell id="DcRQQ9y7dEn5vMJfV4_L-49" value="&lt;font style=&quot;font-size: 8px;&quot;&gt;Fil -&lt;/font&gt;" style="text;html=1;strokeColor=none;fillColor=none;align=center;verticalAlign=middle;whiteSpace=wrap;rounded=0;fontSize=8;" parent="K0OsWoiAlUttfvYLpMJz-1" vertex="1">
          <mxGeometry x="546.9032258064516" y="56.04" width="39.387096774193544" height="11.6" as="geometry" />
        </mxCell>
        <mxCell id="DcRQQ9y7dEn5vMJfV4_L-50" value="&lt;font style=&quot;font-size: 8px;&quot;&gt;Band+&lt;/font&gt;" style="text;html=1;strokeColor=none;fillColor=none;align=center;verticalAlign=middle;whiteSpace=wrap;rounded=0;fontSize=8;" parent="K0OsWoiAlUttfvYLpMJz-1" vertex="1">
          <mxGeometry x="573.516129032258" y="23.56" width="39.387096774193544" height="11.6" as="geometry" />
        </mxCell>
        <mxCell id="DcRQQ9y7dEn5vMJfV4_L-51" value="&lt;font style=&quot;font-size: 8px;&quot;&gt;Band-&lt;/font&gt;" style="text;html=1;strokeColor=none;fillColor=none;align=center;verticalAlign=middle;whiteSpace=wrap;rounded=0;fontSize=8;" parent="K0OsWoiAlUttfvYLpMJz-1" vertex="1">
          <mxGeometry x="573.516129032258" y="56.04" width="39.387096774193544" height="11.6" as="geometry" />
        </mxCell>
        <mxCell id="DcRQQ9y7dEn5vMJfV4_L-52" value="&lt;font style=&quot;font-size: 8px;&quot;&gt;A&amp;gt;B&lt;/font&gt;" style="text;html=1;strokeColor=none;fillColor=none;align=center;verticalAlign=middle;whiteSpace=wrap;rounded=0;fontSize=8;" parent="K0OsWoiAlUttfvYLpMJz-1" vertex="1">
          <mxGeometry x="521.3548387096774" y="93.16" width="39.387096774193544" height="11.6" as="geometry" />
        </mxCell>
        <mxCell id="DcRQQ9y7dEn5vMJfV4_L-53" value="&lt;font style=&quot;font-size: 8px;&quot;&gt;B&amp;gt;A&lt;/font&gt;" style="text;html=1;strokeColor=none;fillColor=none;align=center;verticalAlign=middle;whiteSpace=wrap;rounded=0;fontSize=8;" parent="K0OsWoiAlUttfvYLpMJz-1" vertex="1">
          <mxGeometry x="549.0322580645161" y="93.16" width="39.387096774193544" height="11.6" as="geometry" />
        </mxCell>
        <mxCell id="DcRQQ9y7dEn5vMJfV4_L-54" value="&lt;font style=&quot;font-size: 8px;&quot;&gt;Split&lt;/font&gt;" style="text;html=1;strokeColor=none;fillColor=none;align=center;verticalAlign=middle;whiteSpace=wrap;rounded=0;fontSize=8;" parent="K0OsWoiAlUttfvYLpMJz-1" vertex="1">
          <mxGeometry x="571.3870967741935" y="93.16" width="39.387096774193544" height="11.6" as="geometry" />
        </mxCell>
        <mxCell id="DcRQQ9y7dEn5vMJfV4_L-57" value="&lt;font style=&quot;font-size: 8px;&quot;&gt;FCN&lt;/font&gt;" style="text;html=1;strokeColor=none;fillColor=none;align=center;verticalAlign=middle;whiteSpace=wrap;rounded=0;fontSize=8;" parent="K0OsWoiAlUttfvYLpMJz-1" vertex="1">
          <mxGeometry x="521.3548387096774" y="127.96" width="39.387096774193544" height="11.6" as="geometry" />
        </mxCell>
        <mxCell id="DcRQQ9y7dEn5vMJfV4_L-58" value="&lt;font style=&quot;font-size: 8px;&quot;&gt;RIT&lt;/font&gt;" style="text;html=1;strokeColor=none;fillColor=none;align=center;verticalAlign=middle;whiteSpace=wrap;rounded=0;fontSize=8;" parent="K0OsWoiAlUttfvYLpMJz-1" vertex="1">
          <mxGeometry x="546.9032258064516" y="127.96" width="39.387096774193544" height="11.6" as="geometry" />
        </mxCell>
        <mxCell id="DcRQQ9y7dEn5vMJfV4_L-59" value="&lt;font style=&quot;font-size: 8px;&quot;&gt;XIT&lt;/font&gt;" style="text;html=1;strokeColor=none;fillColor=none;align=center;verticalAlign=middle;whiteSpace=wrap;rounded=0;fontSize=8;" parent="K0OsWoiAlUttfvYLpMJz-1" vertex="1">
          <mxGeometry x="571.3870967741935" y="127.96" width="39.387096774193544" height="11.6" as="geometry" />
        </mxCell>
        <mxCell id="DcRQQ9y7dEn5vMJfV4_L-60" value="&lt;font style=&quot;font-size: 8px;&quot;&gt;CTUNE&lt;/font&gt;" style="text;html=1;strokeColor=none;fillColor=none;align=center;verticalAlign=middle;whiteSpace=wrap;rounded=0;fontSize=8;" parent="K0OsWoiAlUttfvYLpMJz-1" vertex="1">
          <mxGeometry x="479.0322580645161" y="264.47999999999996" width="39.387096774193544" height="4.64" as="geometry" />
        </mxCell>
        <mxCell id="DcRQQ9y7dEn5vMJfV4_L-63" value="&lt;font style=&quot;font-size: 8px;&quot;&gt;LOCK&lt;/font&gt;" style="text;html=1;strokeColor=none;fillColor=none;align=center;verticalAlign=middle;whiteSpace=wrap;rounded=0;fontSize=8;" parent="K0OsWoiAlUttfvYLpMJz-1" vertex="1">
          <mxGeometry x="618.483870967742" y="264.47999999999996" width="39.387096774193544" height="4.64" as="geometry" />
        </mxCell>
        <mxCell id="DcRQQ9y7dEn5vMJfV4_L-64" value="&lt;font style=&quot;font-size: 8px;&quot;&gt;2 Tone / Tune&lt;/font&gt;" style="text;html=1;strokeColor=none;fillColor=none;align=center;verticalAlign=middle;whiteSpace=wrap;rounded=0;fontSize=8;" parent="K0OsWoiAlUttfvYLpMJz-1" vertex="1">
          <mxGeometry x="54.29" y="139.2" width="70.71" height="11.6" as="geometry" />
        </mxCell>
        <mxCell id="DcRQQ9y7dEn5vMJfV4_L-65" value="" style="ellipse;whiteSpace=wrap;html=1;aspect=fixed;strokeColor=none;fillColor=#FF3333;fontSize=11;" parent="K0OsWoiAlUttfvYLpMJz-1" vertex="1">
          <mxGeometry x="63.87096774193548" y="25.52" width="4.258064516129032" height="4.258064516129032" as="geometry" />
        </mxCell>
        <mxCell id="DcRQQ9y7dEn5vMJfV4_L-66" value="&lt;font style=&quot;font-size: 8px;&quot;&gt;Mic/Drive&lt;/font&gt;" style="text;html=1;strokeColor=none;fillColor=none;align=center;verticalAlign=middle;whiteSpace=wrap;rounded=0;fontSize=8;" parent="K0OsWoiAlUttfvYLpMJz-1" vertex="1">
          <mxGeometry x="15.903225806451612" y="65" width="31.93548387096774" height="11.6" as="geometry" />
        </mxCell>
        <mxCell id="DcRQQ9y7dEn5vMJfV4_L-67" value="&lt;font style=&quot;font-size: 8px;&quot;&gt;RX AF/RF&lt;/font&gt;" style="text;html=1;strokeColor=none;fillColor=none;align=center;verticalAlign=middle;whiteSpace=wrap;rounded=0;fontSize=8;" parent="K0OsWoiAlUttfvYLpMJz-1" vertex="1">
          <mxGeometry x="8.516129032258064" y="124.96" width="48.96774193548387" height="11.6" as="geometry" />
        </mxCell>
        <mxCell id="DcRQQ9y7dEn5vMJfV4_L-68" value="&lt;font style=&quot;font-size: 11px;&quot;&gt;Multi&lt;/font&gt;" style="text;html=1;strokeColor=none;fillColor=none;align=center;verticalAlign=middle;whiteSpace=wrap;rounded=0;fontSize=11;" parent="K0OsWoiAlUttfvYLpMJz-1" vertex="1">
          <mxGeometry x="602.516129032258" y="18.56" width="48.96774193548387" height="11.6" as="geometry" />
        </mxCell>
        <mxCell id="DcRQQ9y7dEn5vMJfV4_L-69" value="&lt;font style=&quot;font-size: 11px;&quot;&gt;Multi&lt;/font&gt;" style="text;html=1;strokeColor=none;fillColor=none;align=center;verticalAlign=middle;whiteSpace=wrap;rounded=0;fontSize=11;" parent="K0OsWoiAlUttfvYLpMJz-1" vertex="1">
          <mxGeometry x="602.516129032258" y="81.19999999999999" width="48.96774193548387" height="11.6" as="geometry" />
        </mxCell>
      </root>
    </mxGraphModel>
  </diagram>
</mxfile>
